999
"DXF R12 Output" (www.mydxf.blogspot.com)
 0 
SECTION
 2 
HEADER
 9 
$ACADVER
 1 
AC1009
 9 
$EXTMIN
 10 
 0 
 20 
 0 
 9 
$EXTMAX
 10 
 8.5 
 20 
 11 
 0 
ENDSEC
 0 
SECTION
 2 
ENTITIES
0
POLYLINE
8
Image
62
7
70
0
10
0.000000
20
0.000000
66
1
0
VERTEX
8
Image
10
119.767903
20
46.789559
70
0
0
VERTEX
8
Image
10
114.029732
20
47.785262
70
0
0
VERTEX
8
Image
10
108.276992
20
49.140987
70
0
0
VERTEX
8
Image
10
102.606458
20
50.904752
70
0
0
VERTEX
8
Image
10
97.114908
20
53.124575
70
0
0
VERTEX
8
Image
10
94.466495
20
54.420514
70
0
0
VERTEX
8
Image
10
91.899119
20
55.848474
70
0
0
VERTEX
8
Image
10
89.424877
20
57.414458
70
0
0
VERTEX
8
Image
10
87.055867
20
59.124468
70
0
0
VERTEX
8
Image
10
84.804186
20
60.984507
70
0
0
VERTEX
8
Image
10
82.681930
20
63.000576
70
0
0
VERTEX
8
Image
10
80.701197
20
65.178678
70
0
0
VERTEX
8
Image
10
78.874084
20
67.524815
70
0
0
VERTEX
8
Image
10
76.854004
20
70.966797
70
0
0
VERTEX
8
Image
10
75.093795
20
74.555470
70
0
0
VERTEX
8
Image
10
73.598044
20
78.268420
70
0
0
VERTEX
8
Image
10
72.371339
20
82.083240
70
0
0
VERTEX
8
Image
10
71.418265
20
85.977517
70
0
0
VERTEX
8
Image
10
70.743410
20
89.928841
70
0
0
VERTEX
8
Image
10
70.351360
20
93.914802
70
0
0
VERTEX
8
Image
10
70.246703
20
97.912989
70
0
0
VERTEX
8
Image
10
70.434024
20
101.900991
70
0
0
VERTEX
8
Image
10
70.917912
20
105.856399
70
0
0
VERTEX
8
Image
10
71.702952
20
109.756801
70
0
0
VERTEX
8
Image
10
72.793732
20
113.579787
70
0
0
VERTEX
8
Image
10
74.194838
20
117.302946
70
0
0
VERTEX
8
Image
10
75.910857
20
120.903868
70
0
0
VERTEX
8
Image
10
77.946375
20
124.360143
70
0
0
VERTEX
8
Image
10
80.305981
20
127.649359
70
0
0
VERTEX
8
Image
10
83.524926
20
131.339110
70
0
0
VERTEX
8
Image
10
85.042434
20
133.197724
70
0
0
VERTEX
8
Image
10
86.325006
20
135.118160
70
0
0
VERTEX
8
Image
10
87.242424
20
137.139916
70
0
0
VERTEX
8
Image
10
87.523507
20
138.201132
70
0
0
VERTEX
8
Image
10
87.664468
20
139.302490
70
0
0
VERTEX
8
Image
10
87.649031
20
140.448927
70
0
0
VERTEX
8
Image
10
87.460919
20
141.645380
70
0
0
VERTEX
8
Image
10
87.083853
20
142.896786
70
0
0
VERTEX
8
Image
10
86.501557
20
144.208083
70
0
0
VERTEX
8
Image
10
85.531174
20
149.240860
70
0
0
VERTEX
8
Image
10
84.752263
20
154.308036
70
0
0
VERTEX
8
Image
10
84.179721
20
159.400722
70
0
0
VERTEX
8
Image
10
83.828450
20
164.510027
70
0
0
VERTEX
8
Image
10
83.713348
20
169.627064
70
0
0
VERTEX
8
Image
10
83.849315
20
174.742943
70
0
0
VERTEX
8
Image
10
84.251251
20
179.848774
70
0
0
VERTEX
8
Image
10
84.934056
20
184.935669
70
0
0
VERTEX
8
Image
10
85.929686
20
189.335683
70
0
0
VERTEX
8
Image
10
87.483494
20
193.651835
70
0
0
VERTEX
8
Image
10
88.464215
20
195.736784
70
0
0
VERTEX
8
Image
10
89.577879
20
197.750753
70
0
0
VERTEX
8
Image
10
90.822286
20
199.677072
70
0
0
VERTEX
8
Image
10
92.195236
20
201.499068
70
0
0
VERTEX
8
Image
10
93.694527
20
203.200071
70
0
0
VERTEX
8
Image
10
95.317961
20
204.763410
70
0
0
VERTEX
8
Image
10
97.063336
20
206.172413
70
0
0
VERTEX
8
Image
10
98.928452
20
207.410408
70
0
0
VERTEX
8
Image
10
100.911108
20
208.460725
70
0
0
VERTEX
8
Image
10
103.009105
20
209.306692
70
0
0
VERTEX
8
Image
10
105.220241
20
209.931638
70
0
0
VERTEX
8
Image
10
107.542316
20
210.318892
70
0
0
VERTEX
8
Image
10
109.558499
20
210.378896
70
0
0
VERTEX
8
Image
10
111.493102
20
210.185174
70
0
0
VERTEX
8
Image
10
113.343781
20
209.756424
70
0
0
VERTEX
8
Image
10
115.108191
20
209.111343
70
0
0
VERTEX
8
Image
10
116.783988
20
208.268631
70
0
0
VERTEX
8
Image
10
118.368829
20
207.246983
70
0
0
VERTEX
8
Image
10
119.860367
20
206.065099
70
0
0
VERTEX
8
Image
10
121.256260
20
204.741676
70
0
0
VERTEX
8
Image
10
123.751730
20
201.745005
70
0
0
VERTEX
8
Image
10
125.836484
20
198.406553
70
0
0
VERTEX
8
Image
10
127.491769
20
194.875904
70
0
0
VERTEX
8
Image
10
128.698828
20
191.302640
70
0
0
VERTEX
8
Image
10
129.261410
20
189.757117
70
0
0
VERTEX
8
Image
10
129.847239
20
188.667474
70
0
0
VERTEX
8
Image
10
130.450045
20
187.991575
70
0
0
VERTEX
8
Image
10
131.063556
20
187.687285
70
0
0
VERTEX
8
Image
10
131.681502
20
187.712471
70
0
0
VERTEX
8
Image
10
132.297611
20
188.024997
70
0
0
VERTEX
8
Image
10
132.905613
20
188.582729
70
0
0
VERTEX
8
Image
10
133.499235
20
189.343533
70
0
0
VERTEX
8
Image
10
134.618259
20
191.305815
70
0
0
VERTEX
8
Image
10
135.604515
20
193.574767
70
0
0
VERTEX
8
Image
10
136.978048
20
197.684371
70
0
0
VERTEX
8
Image
10
137.693970
20
199.558468
70
0
0
VERTEX
8
Image
10
138.599056
20
201.347469
70
0
0
VERTEX
8
Image
10
139.677958
20
203.039167
70
0
0
VERTEX
8
Image
10
140.915329
20
204.621355
70
0
0
VERTEX
8
Image
10
142.295822
20
206.081824
70
0
0
VERTEX
8
Image
10
143.804089
20
207.408367
70
0
0
VERTEX
8
Image
10
145.424783
20
208.588777
70
0
0
VERTEX
8
Image
10
147.142556
20
209.610845
70
0
0
VERTEX
8
Image
10
148.942061
20
210.462365
70
0
0
VERTEX
8
Image
10
150.807951
20
211.131127
70
0
0
VERTEX
8
Image
10
152.724878
20
211.604926
70
0
0
VERTEX
8
Image
10
154.677495
20
211.871552
70
0
0
VERTEX
8
Image
10
156.650454
20
211.918799
70
0
0
VERTEX
8
Image
10
158.628408
20
211.734458
70
0
0
VERTEX
8
Image
10
160.596010
20
211.306322
70
0
0
VERTEX
8
Image
10
162.537912
20
210.622183
70
0
0
VERTEX
8
Image
10
164.287061
20
209.776440
70
0
0
VERTEX
8
Image
10
165.855396
20
208.765455
70
0
0
VERTEX
8
Image
10
167.253526
20
207.603955
70
0
0
VERTEX
8
Image
10
168.492062
20
206.306671
70
0
0
VERTEX
8
Image
10
169.581615
20
204.888331
70
0
0
VERTEX
8
Image
10
170.532795
20
203.363664
70
0
0
VERTEX
8
Image
10
172.062484
20
200.054268
70
0
0
VERTEX
8
Image
10
173.166014
20
196.496316
70
0
0
VERTEX
8
Image
10
173.928273
20
192.807640
70
0
0
VERTEX
8
Image
10
174.434147
20
189.106072
70
0
0
VERTEX
8
Image
10
174.768523
20
185.509447
70
0
0
VERTEX
8
Image
10
174.949959
20
179.769011
70
0
0
VERTEX
8
Image
10
174.759446
20
174.044284
70
0
0
VERTEX
8
Image
10
174.241568
20
168.340130
70
0
0
VERTEX
8
Image
10
173.440907
20
162.661415
70
0
0
VERTEX
8
Image
10
172.402046
20
157.013004
70
0
0
VERTEX
8
Image
10
171.169570
20
151.399762
70
0
0
VERTEX
8
Image
10
168.302101
20
140.298245
70
0
0
VERTEX
8
Image
10
169.486543
20
137.864062
70
0
0
VERTEX
8
Image
10
171.043239
20
135.618509
70
0
0
VERTEX
8
Image
10
172.851043
20
133.493674
70
0
0
VERTEX
8
Image
10
174.788810
20
131.421650
70
0
0
VERTEX
8
Image
10
176.735397
20
129.334526
70
0
0
VERTEX
8
Image
10
178.569657
20
127.164392
70
0
0
VERTEX
8
Image
10
180.170446
20
124.843340
70
0
0
VERTEX
8
Image
10
181.416620
20
122.303460
70
0
0
VERTEX
8
Image
10
182.792955
20
119.452524
70
0
0
VERTEX
8
Image
10
184.000523
20
116.523198
70
0
0
VERTEX
8
Image
10
185.038904
20
113.525910
70
0
0
VERTEX
8
Image
10
185.907681
20
110.471089
70
0
0
VERTEX
8
Image
10
186.606432
20
107.369166
70
0
0
VERTEX
8
Image
10
187.134740
20
104.230568
70
0
0
VERTEX
8
Image
10
187.492184
20
101.065726
70
0
0
VERTEX
8
Image
10
187.678345
20
97.885068
70
0
0
VERTEX
8
Image
10
187.692805
20
94.699025
70
0
0
VERTEX
8
Image
10
187.535143
20
91.518024
70
0
0
VERTEX
8
Image
10
187.204940
20
88.352496
70
0
0
VERTEX
8
Image
10
186.701776
20
85.212870
70
0
0
VERTEX
8
Image
10
186.025234
20
82.109575
70
0
0
VERTEX
8
Image
10
185.174892
20
79.053040
70
0
0
VERTEX
8
Image
10
184.150333
20
76.053694
70
0
0
VERTEX
8
Image
10
182.951136
20
73.121968
70
0
0
VERTEX
8
Image
10
181.510802
20
70.275828
70
0
0
VERTEX
8
Image
10
179.855186
20
67.593865
70
0
0
VERTEX
8
Image
10
177.999493
20
65.075595
70
0
0
VERTEX
8
Image
10
175.958929
20
62.720534
70
0
0
VERTEX
8
Image
10
173.748698
20
60.528199
70
0
0
VERTEX
8
Image
10
171.384005
20
58.498106
70
0
0
VERTEX
8
Image
10
168.880057
20
56.629771
70
0
0
VERTEX
8
Image
10
166.252058
20
54.922712
70
0
0
VERTEX
8
Image
10
163.515213
20
53.376444
70
0
0
VERTEX
8
Image
10
160.684728
20
51.990485
70
0
0
VERTEX
8
Image
10
157.775808
20
50.764349
70
0
0
VERTEX
8
Image
10
154.803657
20
49.697555
70
0
0
VERTEX
8
Image
10
151.783483
20
48.789619
70
0
0
VERTEX
8
Image
10
148.730489
20
48.040056
70
0
0
VERTEX
8
Image
10
145.659881
20
47.448384
70
0
0
VERTEX
8
Image
10
142.586864
20
47.014118
70
0
0
VERTEX
8
Image
10
131.178035
20
46.707210
70
0
0
VERTEX
8
Image
10
125.471560
20
46.678734
70
0
0
VERTEX
8
Image
10
119.767903
20
46.789559
70
0
0
VERTEX
8
Image
10
119.767903
20
46.789559
70
0
0
SEQEND
8
Image
0
POLYLINE
8
Image
62
7
70
0
10
0.000000
20
0.000000
66
1
0
VERTEX
8
Image
10
143.580373
20
50.923800
70
0
0
VERTEX
8
Image
10
149.255591
20
52.052694
70
0
0
VERTEX
8
Image
10
154.870701
20
53.729245
70
0
0
VERTEX
8
Image
10
157.617136
20
54.777478
70
0
0
VERTEX
8
Image
10
160.302250
20
55.968132
70
0
0
VERTEX
8
Image
10
162.910610
20
57.303039
70
0
0
VERTEX
8
Image
10
165.426786
20
58.784035
70
0
0
VERTEX
8
Image
10
167.835345
20
60.412955
70
0
0
VERTEX
8
Image
10
170.120857
20
62.191634
70
0
0
VERTEX
8
Image
10
172.267890
20
64.121908
70
0
0
VERTEX
8
Image
10
174.261012
20
66.205610
70
0
0
VERTEX
8
Image
10
176.084792
20
68.444576
70
0
0
VERTEX
8
Image
10
177.723799
20
70.840642
70
0
0
VERTEX
8
Image
10
179.162600
20
73.395641
70
0
0
VERTEX
8
Image
10
180.385765
20
76.111409
70
0
0
VERTEX
8
Image
10
181.613046
20
79.607706
70
0
0
VERTEX
8
Image
10
182.593087
20
83.196620
70
0
0
VERTEX
8
Image
10
183.323681
20
86.856687
70
0
0
VERTEX
8
Image
10
183.802621
20
90.566445
70
0
0
VERTEX
8
Image
10
184.027699
20
94.304429
70
0
0
VERTEX
8
Image
10
183.996708
20
98.049176
70
0
0
VERTEX
8
Image
10
183.707440
20
101.779222
70
0
0
VERTEX
8
Image
10
183.157689
20
105.473103
70
0
0
VERTEX
8
Image
10
182.345246
20
109.109356
70
0
0
VERTEX
8
Image
10
181.267904
20
112.666517
70
0
0
VERTEX
8
Image
10
179.923457
20
116.123123
70
0
0
VERTEX
8
Image
10
178.309696
20
119.457711
70
0
0
VERTEX
8
Image
10
176.424415
20
122.648815
70
0
0
VERTEX
8
Image
10
174.265405
20
125.674973
70
0
0
VERTEX
8
Image
10
171.830459
20
128.514722
70
0
0
VERTEX
8
Image
10
169.117371
20
131.146596
70
0
0
VERTEX
8
Image
10
167.504605
20
132.217466
70
0
0
VERTEX
8
Image
10
166.083056
20
133.318533
70
0
0
VERTEX
8
Image
10
164.913923
20
134.476625
70
0
0
VERTEX
8
Image
10
164.058407
20
135.718574
70
0
0
VERTEX
8
Image
10
163.577706
20
137.071210
70
0
0
VERTEX
8
Image
10
163.533022
20
138.561361
70
0
0
VERTEX
8
Image
10
163.985554
20
140.215858
70
0
0
VERTEX
8
Image
10
164.996501
20
142.061532
70
0
0
VERTEX
8
Image
10
166.809907
20
148.968241
70
0
0
VERTEX
8
Image
10
168.456822
20
155.988872
70
0
0
VERTEX
8
Image
10
169.825358
20
163.090472
70
0
0
VERTEX
8
Image
10
170.803627
20
170.240088
70
0
0
VERTEX
8
Image
10
171.279739
20
177.404766
70
0
0
VERTEX
8
Image
10
171.294521
20
180.982456
70
0
0
VERTEX
8
Image
10
171.141806
20
184.551555
70
0
0
VERTEX
8
Image
10
170.807607
20
188.107942
70
0
0
VERTEX
8
Image
10
170.277939
20
191.647499
70
0
0
VERTEX
8
Image
10
169.538815
20
195.166108
70
0
0
VERTEX
8
Image
10
168.576249
20
198.659648
70
0
0
VERTEX
8
Image
10
168.018960
20
200.143173
70
0
0
VERTEX
8
Image
10
167.288027
20
201.510416
70
0
0
VERTEX
8
Image
10
166.400652
20
202.756259
70
0
0
VERTEX
8
Image
10
165.374036
20
203.875586
70
0
0
VERTEX
8
Image
10
164.225380
20
204.863279
70
0
0
VERTEX
8
Image
10
162.971884
20
205.714221
70
0
0
VERTEX
8
Image
10
161.630751
20
206.423295
70
0
0
VERTEX
8
Image
10
160.219180
20
206.985382
70
0
0
VERTEX
8
Image
10
158.754374
20
207.395367
70
0
0
VERTEX
8
Image
10
157.253533
20
207.648132
70
0
0
VERTEX
8
Image
10
155.733858
20
207.738559
70
0
0
VERTEX
8
Image
10
154.212550
20
207.661531
70
0
0
VERTEX
8
Image
10
152.706811
20
207.411931
70
0
0
VERTEX
8
Image
10
151.233842
20
206.984642
70
0
0
VERTEX
8
Image
10
149.810843
20
206.374547
70
0
0
VERTEX
8
Image
10
148.455016
20
205.576527
70
0
0
VERTEX
8
Image
10
146.722486
20
204.336557
70
0
0
VERTEX
8
Image
10
145.167580
20
202.959221
70
0
0
VERTEX
8
Image
10
143.778528
20
201.456942
70
0
0
VERTEX
8
Image
10
142.543562
20
199.842145
70
0
0
VERTEX
8
Image
10
141.450913
20
198.127254
70
0
0
VERTEX
8
Image
10
140.488813
20
196.324694
70
0
0
VERTEX
8
Image
10
138.909184
20
192.506262
70
0
0
VERTEX
8
Image
10
137.710526
20
188.486241
70
0
0
VERTEX
8
Image
10
136.798690
20
184.364027
70
0
0
VERTEX
8
Image
10
135.458887
20
176.210593
70
0
0
VERTEX
8
Image
10
134.680085
20
168.658494
70
0
0
VERTEX
8
Image
10
134.309945
20
161.074884
70
0
0
VERTEX
8
Image
10
134.089431
20
153.486606
70
0
0
VERTEX
8
Image
10
133.759507
20
145.920504
70
0
0
VERTEX
8
Image
10
132.331705
20
145.555603
70
0
0
VERTEX
8
Image
10
131.188515
20
145.548888
70
0
0
VERTEX
8
Image
10
130.301061
20
145.861888
70
0
0
VERTEX
8
Image
10
129.640466
20
146.456133
70
0
0
VERTEX
8
Image
10
129.177851
20
147.293152
70
0
0
VERTEX
8
Image
10
128.884340
20
148.334475
70
0
0
VERTEX
8
Image
10
128.689120
20
150.876151
70
0
0
VERTEX
8
Image
10
128.823787
20
153.773396
70
0
0
VERTEX
8
Image
10
129.057322
20
156.718447
70
0
0
VERTEX
8
Image
10
129.158707
20
159.403538
70
0
0
VERTEX
8
Image
10
129.087650
20
160.552424
70
0
0
VERTEX
8
Image
10
128.896924
20
161.520907
70
0
0
VERTEX
8
Image
10
128.308614
20
171.820294
70
0
0
VERTEX
8
Image
10
127.772153
20
177.010588
70
0
0
VERTEX
8
Image
10
126.958513
20
182.152553
70
0
0
VERTEX
8
Image
10
125.780965
20
187.189641
70
0
0
VERTEX
8
Image
10
124.152780
20
192.065303
70
0
0
VERTEX
8
Image
10
123.142595
20
194.424929
70
0
0
VERTEX
8
Image
10
121.987227
20
196.722993
70
0
0
VERTEX
8
Image
10
120.675834
20
198.952427
70
0
0
VERTEX
8
Image
10
119.197576
20
201.106162
70
0
0
VERTEX
8
Image
10
118.155676
20
202.394966
70
0
0
VERTEX
8
Image
10
116.994302
20
203.486709
70
0
0
VERTEX
8
Image
10
115.729460
20
204.387267
70
0
0
VERTEX
8
Image
10
114.377158
20
205.102517
70
0
0
VERTEX
8
Image
10
112.953402
20
205.638337
70
0
0
VERTEX
8
Image
10
111.474200
20
206.000603
70
0
0
VERTEX
8
Image
10
109.955560
20
206.195192
70
0
0
VERTEX
8
Image
10
108.413487
20
206.227982
70
0
0
VERTEX
8
Image
10
106.863990
20
206.104849
70
0
0
VERTEX
8
Image
10
105.323076
20
205.831671
70
0
0
VERTEX
8
Image
10
102.331024
20
204.858686
70
0
0
VERTEX
8
Image
10
99.565388
20
203.356042
70
0
0
VERTEX
8
Image
10
98.307495
20
202.420791
70
0
0
VERTEX
8
Image
10
97.154227
20
201.370756
70
0
0
VERTEX
8
Image
10
95.400908
20
199.440864
70
0
0
VERTEX
8
Image
10
93.860554
20
197.397650
70
0
0
VERTEX
8
Image
10
92.520556
20
195.251932
70
0
0
VERTEX
8
Image
10
91.368309
20
193.014530
70
0
0
VERTEX
8
Image
10
90.391205
20
190.696264
70
0
0
VERTEX
8
Image
10
89.576639
20
188.307952
70
0
0
VERTEX
8
Image
10
88.384692
20
183.364470
70
0
0
VERTEX
8
Image
10
87.691615
20
178.270639
70
0
0
VERTEX
8
Image
10
87.396554
20
173.113013
70
0
0
VERTEX
8
Image
10
87.398658
20
167.978149
70
0
0
VERTEX
8
Image
10
87.597073
20
162.952600
70
0
0
VERTEX
8
Image
10
88.294547
20
155.733755
70
0
0
VERTEX
8
Image
10
89.361463
20
148.563917
70
0
0
VERTEX
8
Image
10
90.706103
20
141.437627
70
0
0
VERTEX
8
Image
10
92.236751
20
134.349424
70
0
0
VERTEX
8
Image
10
90.029967
20
132.511345
70
0
0
VERTEX
8
Image
10
87.930040
20
130.549311
70
0
0
VERTEX
8
Image
10
85.944202
20
128.470919
70
0
0
VERTEX
8
Image
10
84.079685
20
126.283765
70
0
0
VERTEX
8
Image
10
82.343724
20
123.995445
70
0
0
VERTEX
8
Image
10
80.743551
20
121.613553
70
0
0
VERTEX
8
Image
10
79.286399
20
119.145688
70
0
0
VERTEX
8
Image
10
77.979501
20
116.599443
70
0
0
VERTEX
8
Image
10
76.830090
20
113.982416
70
0
0
VERTEX
8
Image
10
75.845399
20
111.302203
70
0
0
VERTEX
8
Image
10
75.032662
20
108.566398
70
0
0
VERTEX
8
Image
10
74.399111
20
105.782599
70
0
0
VERTEX
8
Image
10
73.951979
20
102.958400
70
0
0
VERTEX
8
Image
10
73.698499
20
100.101399
70
0
0
VERTEX
8
Image
10
73.645906
20
97.219190
70
0
0
VERTEX
8
Image
10
73.801430
20
94.319371
70
0
0
VERTEX
8
Image
10
73.953347
20
91.535354
70
0
0
VERTEX
8
Image
10
74.279913
20
88.763263
70
0
0
VERTEX
8
Image
10
74.778271
20
86.014899
70
0
0
VERTEX
8
Image
10
75.445565
20
83.302066
70
0
0
VERTEX
8
Image
10
76.278938
20
80.636567
70
0
0
VERTEX
8
Image
10
77.275534
20
78.030204
70
0
0
VERTEX
8
Image
10
78.432495
20
75.494780
70
0
0
VERTEX
8
Image
10
79.746966
20
73.042099
70
0
0
VERTEX
8
Image
10
81.216089
20
70.683962
70
0
0
VERTEX
8
Image
10
82.837008
20
68.432173
70
0
0
VERTEX
8
Image
10
84.606866
20
66.298535
70
0
0
VERTEX
8
Image
10
86.522808
20
64.294851
70
0
0
VERTEX
8
Image
10
88.581975
20
62.432923
70
0
0
VERTEX
8
Image
10
90.781511
20
60.724554
70
0
0
VERTEX
8
Image
10
93.118561
20
59.181548
70
0
0
VERTEX
8
Image
10
95.590266
20
57.815706
70
0
0
VERTEX
8
Image
10
98.360445
20
56.452622
70
0
0
VERTEX
8
Image
10
101.187015
20
55.242543
70
0
0
VERTEX
8
Image
10
104.064439
20
54.179322
70
0
0
VERTEX
8
Image
10
106.987182
20
53.256809
70
0
0
VERTEX
8
Image
10
112.946491
20
51.809315
70
0
0
VERTEX
8
Image
10
119.020660
20
50.850871
70
0
0
VERTEX
8
Image
10
125.165412
20
50.332288
70
0
0
VERTEX
8
Image
10
131.336468
20
50.204375
70
0
0
VERTEX
8
Image
10
137.489548
20
50.417942
70
0
0
VERTEX
8
Image
10
143.580373
20
50.923800
70
0
0
VERTEX
8
Image
10
143.580373
20
50.923800
70
0
0
SEQEND
8
Image
0
POLYLINE
8
Image
62
7
70
0
10
0.000000
20
0.000000
66
1
0
VERTEX
8
Image
10
136.252943
20
62.987118
70
0
0
VERTEX
8
Image
10
135.605449
20
63.454271
70
0
0
VERTEX
8
Image
10
134.825832
20
63.702390
70
0
0
VERTEX
8
Image
10
133.940578
20
63.770170
70
0
0
VERTEX
8
Image
10
132.976172
20
63.696306
70
0
0
VERTEX
8
Image
10
130.915853
20
63.278423
70
0
0
VERTEX
8
Image
10
128.856762
20
62.758298
70
0
0
VERTEX
8
Image
10
127.010790
20
62.445486
70
0
0
VERTEX
8
Image
10
126.233939
20
62.463559
70
0
0
VERTEX
8
Image
10
125.589826
20
62.649545
70
0
0
VERTEX
8
Image
10
125.104937
20
63.042137
70
0
0
VERTEX
8
Image
10
124.805758
20
63.680030
70
0
0
VERTEX
8
Image
10
124.718776
20
64.601919
70
0
0
VERTEX
8
Image
10
124.870476
20
65.846499
70
0
0
VERTEX
8
Image
10
125.938938
20
66.134535
70
0
0
VERTEX
8
Image
10
126.629157
20
66.510979
70
0
0
VERTEX
8
Image
10
126.996390
20
66.962948
70
0
0
VERTEX
8
Image
10
127.095896
20
67.477559
70
0
0
VERTEX
8
Image
10
126.982936
20
68.041931
70
0
0
VERTEX
8
Image
10
126.712766
20
68.643181
70
0
0
VERTEX
8
Image
10
125.921837
20
69.904788
70
0
0
VERTEX
8
Image
10
125.165181
20
71.159324
70
0
0
VERTEX
8
Image
10
124.937852
20
71.751734
70
0
0
VERTEX
8
Image
10
124.884868
20
72.303730
70
0
0
VERTEX
8
Image
10
125.061488
20
72.802429
70
0
0
VERTEX
8
Image
10
125.522970
20
73.234949
70
0
0
VERTEX
8
Image
10
126.324574
20
73.588409
70
0
0
VERTEX
8
Image
10
127.521558
20
73.849925
70
0
0
VERTEX
8
Image
10
128.959086
20
72.551820
70
0
0
VERTEX
8
Image
10
130.423859
20
71.666160
70
0
0
VERTEX
8
Image
10
131.917636
20
71.145073
70
0
0
VERTEX
8
Image
10
133.442175
20
70.940683
70
0
0
VERTEX
8
Image
10
134.999236
20
71.005117
70
0
0
VERTEX
8
Image
10
136.590577
20
71.290502
70
0
0
VERTEX
8
Image
10
139.883135
20
72.332624
70
0
0
VERTEX
8
Image
10
140.579293
20
71.987962
70
0
0
VERTEX
8
Image
10
141.006939
20
71.594764
70
0
0
VERTEX
8
Image
10
141.206372
20
71.160906
70
0
0
VERTEX
8
Image
10
141.217888
20
70.694263
70
0
0
VERTEX
8
Image
10
140.838361
20
69.694129
70
0
0
VERTEX
8
Image
10
140.190736
20
68.657370
70
0
0
VERTEX
8
Image
10
139.597394
20
67.646994
70
0
0
VERTEX
8
Image
10
139.380713
20
66.726010
70
0
0
VERTEX
8
Image
10
139.514364
20
66.318730
70
0
0
VERTEX
8
Image
10
139.863073
20
65.957426
70
0
0
VERTEX
8
Image
10
140.467137
20
65.649974
70
0
0
VERTEX
8
Image
10
141.366853
20
65.404251
70
0
0
VERTEX
8
Image
10
142.075269
20
64.157460
70
0
0
VERTEX
8
Image
10
142.161595
20
63.637063
70
0
0
VERTEX
8
Image
10
142.094664
20
63.184965
70
0
0
VERTEX
8
Image
10
141.577025
20
62.484569
70
0
0
VERTEX
8
Image
10
140.674343
20
62.054071
70
0
0
VERTEX
8
Image
10
139.538604
20
61.891276
70
0
0
VERTEX
8
Image
10
138.321799
20
61.993984
70
0
0
VERTEX
8
Image
10
137.175916
20
62.359998
70
0
0
VERTEX
8
Image
10
136.252943
20
62.987118
70
0
0
VERTEX
8
Image
10
136.252943
20
62.987118
70
0
0
SEQEND
8
Image
0
POLYLINE
8
Image
62
7
70
0
10
0.000000
20
0.000000
66
1
0
VERTEX
8
Image
10
99.769759
20
82.311210
70
0
0
VERTEX
8
Image
10
98.424194
20
83.244430
70
0
0
VERTEX
8
Image
10
97.569459
20
84.209872
70
0
0
VERTEX
8
Image
10
97.147700
20
85.178433
70
0
0
VERTEX
8
Image
10
97.101065
20
86.121011
70
0
0
VERTEX
8
Image
10
97.371697
20
87.008500
70
0
0
VERTEX
8
Image
10
97.901743
20
87.811800
70
0
0
VERTEX
8
Image
10
98.633350
20
88.501807
70
0
0
VERTEX
8
Image
10
99.508662
20
89.049417
70
0
0
VERTEX
8
Image
10
100.469825
20
89.425527
70
0
0
VERTEX
8
Image
10
101.458986
20
89.601036
70
0
0
VERTEX
8
Image
10
102.418290
20
89.546838
70
0
0
VERTEX
8
Image
10
103.289884
20
89.233832
70
0
0
VERTEX
8
Image
10
104.015912
20
88.632914
70
0
0
VERTEX
8
Image
10
104.538521
20
87.714982
70
0
0
VERTEX
8
Image
10
104.799857
20
86.450931
70
0
0
VERTEX
8
Image
10
104.742065
20
84.811660
70
0
0
VERTEX
8
Image
10
104.526751
20
84.013733
70
0
0
VERTEX
8
Image
10
104.122012
20
83.283203
70
0
0
VERTEX
8
Image
10
103.564528
20
82.655711
70
0
0
VERTEX
8
Image
10
102.890980
20
82.166896
70
0
0
VERTEX
8
Image
10
102.138048
20
81.852398
70
0
0
VERTEX
8
Image
10
101.342414
20
81.747857
70
0
0
VERTEX
8
Image
10
100.540758
20
81.888915
70
0
0
VERTEX
8
Image
10
99.769759
20
82.311210
70
0
0
VERTEX
8
Image
10
99.769759
20
82.311210
70
0
0
SEQEND
8
Image
0
POLYLINE
8
Image
62
7
70
0
10
0.000000
20
0.000000
66
1
0
VERTEX
8
Image
10
155.997076
20
82.580302
70
0
0
VERTEX
8
Image
10
154.999243
20
83.831838
70
0
0
VERTEX
8
Image
10
154.440709
20
85.013071
70
0
0
VERTEX
8
Image
10
154.265750
20
86.106938
70
0
0
VERTEX
8
Image
10
154.418643
20
87.096378
70
0
0
VERTEX
8
Image
10
154.843664
20
87.964327
70
0
0
VERTEX
8
Image
10
155.485088
20
88.693724
70
0
0
VERTEX
8
Image
10
156.287191
20
89.267506
70
0
0
VERTEX
8
Image
10
157.194249
20
89.668611
70
0
0
VERTEX
8
Image
10
158.150539
20
89.879975
70
0
0
VERTEX
8
Image
10
159.100336
20
89.884537
70
0
0
VERTEX
8
Image
10
159.987917
20
89.665235
70
0
0
VERTEX
8
Image
10
160.757557
20
89.205005
70
0
0
VERTEX
8
Image
10
161.353531
20
88.486785
70
0
0
VERTEX
8
Image
10
161.720118
20
87.493513
70
0
0
VERTEX
8
Image
10
161.801591
20
86.208127
70
0
0
VERTEX
8
Image
10
161.542228
20
84.613564
70
0
0
VERTEX
8
Image
10
161.205697
20
83.818388
70
0
0
VERTEX
8
Image
10
160.674250
20
83.073806
70
0
0
VERTEX
8
Image
10
159.994400
20
82.431809
70
0
0
VERTEX
8
Image
10
159.212661
20
81.944389
70
0
0
VERTEX
8
Image
10
158.375545
20
81.663537
70
0
0
VERTEX
8
Image
10
157.529567
20
81.641244
70
0
0
VERTEX
8
Image
10
156.721239
20
81.929502
70
0
0
VERTEX
8
Image
10
155.997076
20
82.580302
70
0
0
VERTEX
8
Image
10
155.997076
20
82.580302
70
0
0
SEQEND
8
Image
 0 
ENDSEC
 0 
EOF