%TF.GenerationSoftware,KiCad,Pcbnew,10.0.1*%
%TF.CreationDate,2026-04-18T14:26:21-07:00*%
%TF.ProjectId,miffy-blinky,6d696666-792d-4626-9c69-6e6b792e6b69,rev?*%
%TF.SameCoordinates,Original*%
%TF.FileFunction,Soldermask,Bot*%
%TF.FilePolarity,Negative*%
%FSLAX46Y46*%
G04 Gerber Fmt 4.6, Leading zero omitted, Abs format (unit mm)*
G04 Created by KiCad (PCBNEW 10.0.1) date 2026-04-18 14:26:21*
%MOMM*%
%LPD*%
G01*
G04 APERTURE LIST*
G04 Aperture macros list*
%AMRoundRect*
0 Rectangle with rounded corners*
0 $1 Rounding radius*
0 $2 $3 $4 $5 $6 $7 $8 $9 X,Y pos of 4 corners*
0 Add a 4 corners polygon primitive as box body*
4,1,4,$2,$3,$4,$5,$6,$7,$8,$9,$2,$3,0*
0 Add four circle primitives for the rounded corners*
1,1,$1+$1,$2,$3*
1,1,$1+$1,$4,$5*
1,1,$1+$1,$6,$7*
1,1,$1+$1,$8,$9*
0 Add four rect primitives between the rounded corners*
20,1,$1+$1,$2,$3,$4,$5,0*
20,1,$1+$1,$4,$5,$6,$7,0*
20,1,$1+$1,$6,$7,$8,$9,0*
20,1,$1+$1,$8,$9,$2,$3,0*%
G04 Aperture macros list end*
%ADD10C,1.800000*%
%ADD11R,1.800000X1.800000*%
%ADD12C,1.600000*%
%ADD13RoundRect,0.250000X-0.550000X-0.550000X0.550000X-0.550000X0.550000X0.550000X-0.550000X0.550000X0*%
%ADD14C,1.295400*%
%ADD15R,1.295400X1.295400*%
%ADD16R,1.700000X1.700000*%
%ADD17C,1.700000*%
%ADD18RoundRect,0.250000X-0.550000X0.550000X-0.550000X-0.550000X0.550000X-0.550000X0.550000X0.550000X0*%
%ADD19RoundRect,0.412500X-0.412500X-0.412500X0.412500X-0.412500X0.412500X0.412500X-0.412500X0.412500X0*%
%ADD20C,1.650000*%
G04 APERTURE END LIST*
D10*
%TO.C,D1*%
X194770000Y-63500000D03*
D11*
X192230000Y-63500000D03*
%TD*%
D12*
%TO.C,C2*%
X197044888Y-116500000D03*
D13*
X195044888Y-116500000D03*
%TD*%
D14*
%TO.C,U2*%
X214890000Y-97310000D03*
X212350000Y-97310000D03*
X209810000Y-97310000D03*
X207270000Y-97310000D03*
X204730000Y-97310000D03*
X202190000Y-97310000D03*
X199650000Y-97310000D03*
X197110000Y-97310000D03*
X197110000Y-89690000D03*
X199650000Y-89690000D03*
X202190000Y-89690000D03*
X204730000Y-89690000D03*
X207270000Y-89690000D03*
X209810000Y-89690000D03*
X212350000Y-89690000D03*
D15*
X214890000Y-89690000D03*
%TD*%
D12*
%TO.C,R2*%
X222310000Y-107500000D03*
X214690000Y-107500000D03*
%TD*%
D16*
%TO.C,J1*%
X215000000Y-114000000D03*
D17*
X215000000Y-116540000D03*
%TD*%
D10*
%TO.C,D5*%
X196500000Y-131500000D03*
D11*
X193960000Y-131500000D03*
%TD*%
D10*
%TO.C,D7*%
X231270000Y-115500000D03*
D11*
X228730000Y-115500000D03*
%TD*%
%TO.C,D6*%
X219230000Y-129500000D03*
D10*
X221770000Y-129500000D03*
%TD*%
%TO.C,D9*%
X220000000Y-79000000D03*
D11*
X217460000Y-79000000D03*
%TD*%
D10*
%TO.C,D10*%
X220000000Y-64000000D03*
D11*
X217460000Y-64000000D03*
%TD*%
D18*
%TO.C,U1*%
X209810000Y-100695000D03*
D12*
X207270000Y-100695000D03*
X204730000Y-100695000D03*
X202190000Y-100695000D03*
X202190000Y-108315000D03*
X204730000Y-108315000D03*
X207270000Y-108315000D03*
X209810000Y-108315000D03*
%TD*%
D19*
%TO.C,RV1*%
X203420000Y-117000000D03*
D20*
X205960000Y-117000000D03*
X208500000Y-117000000D03*
%TD*%
D12*
%TO.C,R1*%
X214690000Y-103450000D03*
X222310000Y-103450000D03*
%TD*%
D11*
%TO.C,D8*%
X221230000Y-97000000D03*
D10*
X223770000Y-97000000D03*
%TD*%
D11*
%TO.C,D4*%
X180960000Y-116000000D03*
D10*
X183500000Y-116000000D03*
%TD*%
D11*
%TO.C,D3*%
X186960000Y-98000000D03*
D10*
X189500000Y-98000000D03*
%TD*%
D11*
%TO.C,D2*%
X191230000Y-79500000D03*
D10*
X193770000Y-79500000D03*
%TD*%
D13*
%TO.C,C1*%
X192838606Y-105500000D03*
D12*
X195338606Y-105500000D03*
%TD*%
M02*
