%TF.GenerationSoftware,KiCad,Pcbnew,10.0.1*%
%TF.CreationDate,2026-04-18T13:55:31-07:00*%
%TF.ProjectId,miffy-blinky,6d696666-792d-4626-9c69-6e6b792e6b69,rev?*%
%TF.SameCoordinates,Original*%
%TF.FileFunction,Legend,Top*%
%TF.FilePolarity,Positive*%
%FSLAX46Y46*%
G04 Gerber Fmt 4.6, Leading zero omitted, Abs format (unit mm)*
G04 Created by KiCad (PCBNEW 10.0.1) date 2026-04-18 13:55:31*
%MOMM*%
%LPD*%
G01*
G04 APERTURE LIST*
%ADD10C,3.000000*%
%ADD11C,2.296468*%
%ADD12C,0.000000*%
%ADD13C,0.150000*%
%ADD14C,0.120000*%
%ADD15C,0.152400*%
G04 APERTURE END LIST*
D10*
X221119416Y-50680002D02*
X221958086Y-50821247D01*
X222776620Y-51050347D01*
X223565406Y-51364441D01*
X224314831Y-51760671D01*
X225015284Y-52236178D01*
X225657153Y-52788101D01*
X226230826Y-53413580D01*
X226726691Y-54109758D01*
X227135137Y-54873773D01*
X227446550Y-55702767D01*
X227984432Y-57654957D01*
X228397454Y-59621156D01*
X228693433Y-61599060D01*
X228880183Y-63586369D01*
X228965520Y-65580782D01*
X228957260Y-67579995D01*
X228691209Y-71583617D01*
X228144552Y-75578822D01*
X227379814Y-79547196D01*
X226459518Y-83470325D01*
X225446187Y-87329794D01*
X224881270Y-88361157D01*
X224628395Y-89285689D01*
X224653364Y-90118386D01*
X224921980Y-90874239D01*
X225400042Y-91568240D01*
X226053354Y-92215382D01*
X226847715Y-92830658D01*
X227748929Y-93429060D01*
X229265002Y-94899751D01*
X230625650Y-96486603D01*
X231832105Y-98177620D01*
X232885600Y-99960809D01*
X233787370Y-101824177D01*
X234538647Y-103755728D01*
X235140665Y-105743470D01*
X235594659Y-107775408D01*
X235901859Y-109839549D01*
X236063502Y-111923898D01*
X236080820Y-114016463D01*
X235955047Y-116105249D01*
X235687415Y-118178261D01*
X235279159Y-120223507D01*
X234731512Y-122228992D01*
X234045707Y-124182723D01*
X233362203Y-125700294D01*
X232558201Y-127128027D01*
X231642324Y-128466949D01*
X230623196Y-129718083D01*
X229509439Y-130882456D01*
X228309677Y-131961093D01*
X227032533Y-132955019D01*
X225686630Y-133865259D01*
X224280591Y-134692840D01*
X222823039Y-135438786D01*
X221322598Y-136104123D01*
X219787890Y-136689876D01*
X216650166Y-137626733D01*
X213478854Y-138257559D01*
X210075301Y-138540232D01*
X206636960Y-138659573D01*
X203188574Y-138588095D01*
X199754887Y-138298311D01*
X196360641Y-137762733D01*
X193030579Y-136953873D01*
X191397351Y-136438373D01*
X189789446Y-135844245D01*
X188209959Y-135168053D01*
X186661983Y-134406361D01*
X185280794Y-133643129D01*
X183974850Y-132780897D01*
X182745750Y-131826261D01*
X181595087Y-130785815D01*
X180524459Y-129666157D01*
X179535462Y-128473880D01*
X178629693Y-127215580D01*
X177808747Y-125897853D01*
X177074220Y-124527295D01*
X176427710Y-123110500D01*
X175870813Y-121654064D01*
X175405124Y-120164584D01*
X175032240Y-118648652D01*
X174753757Y-117112867D01*
X174571272Y-115563822D01*
X174486381Y-114008113D01*
X174399474Y-112387695D01*
X174428863Y-110777116D01*
X174570508Y-109180624D01*
X174820365Y-107602462D01*
X175174394Y-106046875D01*
X175628551Y-104518107D01*
X176178796Y-103020404D01*
X176821087Y-101558009D01*
X177551382Y-100135168D01*
X178365638Y-98756125D01*
X179259815Y-97425123D01*
X180229870Y-96146410D01*
X181271762Y-94924228D01*
X182381448Y-93762823D01*
X183554888Y-92666438D01*
X184788038Y-91639320D01*
X183932712Y-87678432D01*
X183181328Y-83696261D01*
X182585135Y-79689756D01*
X182195386Y-75655865D01*
X182084512Y-72847588D01*
X182083336Y-69978226D01*
X182248216Y-67096145D01*
X182635508Y-64249712D01*
X183301568Y-61487294D01*
X183756747Y-60152706D01*
X184302753Y-58857259D01*
X184946629Y-57606998D01*
X185695420Y-56407971D01*
X186556169Y-55266223D01*
X187535924Y-54187800D01*
X188180370Y-53601040D01*
X188883281Y-53078422D01*
X190428718Y-52238744D01*
X192100677Y-51695040D01*
X192961740Y-51542388D01*
X193827599Y-51473582D01*
X194689309Y-51491905D01*
X195537925Y-51600641D01*
X196364503Y-51803075D01*
X197160098Y-52102492D01*
X197915764Y-52502173D01*
X198622558Y-53005405D01*
X199271534Y-53615471D01*
X199853747Y-54335655D01*
X200679798Y-55539162D01*
X201412604Y-56784970D01*
X202058224Y-58069128D01*
X202622715Y-59387687D01*
X203532545Y-62112207D01*
X204190559Y-64926931D01*
X204645221Y-67800261D01*
X204944996Y-70700598D01*
X205273743Y-76455895D01*
X205380321Y-76997083D01*
X205420027Y-77639081D01*
X205363374Y-79139510D01*
X205232874Y-80785204D01*
X205157622Y-82404185D01*
X205266711Y-83824473D01*
X205430725Y-84406365D01*
X205689234Y-84874091D01*
X206058375Y-85206155D01*
X206554284Y-85381059D01*
X207193099Y-85377307D01*
X207990955Y-85173400D01*
X208175316Y-80945463D01*
X208298539Y-76705133D01*
X208505373Y-72467412D01*
X208940568Y-68247299D01*
X209689250Y-63691160D01*
X210198784Y-61387667D01*
X210868594Y-59141279D01*
X211751291Y-57007539D01*
X212288912Y-56000268D01*
X212899484Y-55041987D01*
X213589583Y-54139639D01*
X214365786Y-53300165D01*
X215234667Y-52530510D01*
X216202805Y-51837615D01*
X216960441Y-51391681D01*
X217755613Y-51050760D01*
X218578708Y-50811991D01*
X219420115Y-50672514D01*
X220270222Y-50629471D01*
X221119416Y-50680002D01*
D11*
X222648234Y-118500000D02*
G75*
G02*
X220351766Y-118500000I-1148234J0D01*
G01*
X220351766Y-118500000D02*
G75*
G02*
X222648234Y-118500000I1148234J0D01*
G01*
X191148234Y-118500000D02*
G75*
G02*
X188851766Y-118500000I-1148234J0D01*
G01*
X188851766Y-118500000D02*
G75*
G02*
X191148234Y-118500000I1148234J0D01*
G01*
D12*
G36*
X205308479Y-126171821D02*
G01*
X206126994Y-126666728D01*
X206961717Y-126957911D01*
X207813629Y-127072124D01*
X208683715Y-127036119D01*
X209572956Y-126876645D01*
X211412838Y-126294308D01*
X211801851Y-126486905D01*
X212040820Y-126706624D01*
X212152263Y-126949064D01*
X212158698Y-127209824D01*
X211946618Y-127768699D01*
X211584725Y-128348040D01*
X211253166Y-128912638D01*
X211132084Y-129427284D01*
X211206769Y-129654872D01*
X211401627Y-129856768D01*
X211739178Y-130028573D01*
X212241939Y-130165883D01*
X212637802Y-130862589D01*
X212686041Y-131153387D01*
X212648640Y-131406020D01*
X212359384Y-131797401D01*
X211854965Y-132037963D01*
X211220314Y-132128933D01*
X210540363Y-132071540D01*
X209900044Y-131867011D01*
X209384287Y-131516576D01*
X209022467Y-131255531D01*
X208586817Y-131116882D01*
X208092137Y-131079007D01*
X207553227Y-131120282D01*
X206401921Y-131353795D01*
X205251301Y-131644441D01*
X204219771Y-131819240D01*
X203785667Y-131809141D01*
X203425737Y-131705212D01*
X203154781Y-131485832D01*
X202987600Y-131129377D01*
X202938994Y-130614226D01*
X203023764Y-129918754D01*
X203620821Y-129757800D01*
X204006515Y-129547443D01*
X204211725Y-129294883D01*
X204267329Y-129007318D01*
X204204207Y-128691947D01*
X204053236Y-128355968D01*
X203611265Y-127650982D01*
X203188445Y-126949948D01*
X203061414Y-126618909D01*
X203031806Y-126310454D01*
X203130501Y-126031781D01*
X203388378Y-125790088D01*
X203836314Y-125592575D01*
X204505189Y-125446440D01*
X205308479Y-126171821D01*
G37*
D13*
X195878221Y-113109580D02*
X195830602Y-113157200D01*
X195830602Y-113157200D02*
X195687745Y-113204819D01*
X195687745Y-113204819D02*
X195592507Y-113204819D01*
X195592507Y-113204819D02*
X195449650Y-113157200D01*
X195449650Y-113157200D02*
X195354412Y-113061961D01*
X195354412Y-113061961D02*
X195306793Y-112966723D01*
X195306793Y-112966723D02*
X195259174Y-112776247D01*
X195259174Y-112776247D02*
X195259174Y-112633390D01*
X195259174Y-112633390D02*
X195306793Y-112442914D01*
X195306793Y-112442914D02*
X195354412Y-112347676D01*
X195354412Y-112347676D02*
X195449650Y-112252438D01*
X195449650Y-112252438D02*
X195592507Y-112204819D01*
X195592507Y-112204819D02*
X195687745Y-112204819D01*
X195687745Y-112204819D02*
X195830602Y-112252438D01*
X195830602Y-112252438D02*
X195878221Y-112300057D01*
X196259174Y-112300057D02*
X196306793Y-112252438D01*
X196306793Y-112252438D02*
X196402031Y-112204819D01*
X196402031Y-112204819D02*
X196640126Y-112204819D01*
X196640126Y-112204819D02*
X196735364Y-112252438D01*
X196735364Y-112252438D02*
X196782983Y-112300057D01*
X196782983Y-112300057D02*
X196830602Y-112395295D01*
X196830602Y-112395295D02*
X196830602Y-112490533D01*
X196830602Y-112490533D02*
X196782983Y-112633390D01*
X196782983Y-112633390D02*
X196211555Y-113204819D01*
X196211555Y-113204819D02*
X196830602Y-113204819D01*
X208545180Y-92738095D02*
X207735657Y-92738095D01*
X207735657Y-92738095D02*
X207640419Y-92785714D01*
X207640419Y-92785714D02*
X207592800Y-92833333D01*
X207592800Y-92833333D02*
X207545180Y-92928571D01*
X207545180Y-92928571D02*
X207545180Y-93119047D01*
X207545180Y-93119047D02*
X207592800Y-93214285D01*
X207592800Y-93214285D02*
X207640419Y-93261904D01*
X207640419Y-93261904D02*
X207735657Y-93309523D01*
X207735657Y-93309523D02*
X208545180Y-93309523D01*
X208449942Y-93738095D02*
X208497561Y-93785714D01*
X208497561Y-93785714D02*
X208545180Y-93880952D01*
X208545180Y-93880952D02*
X208545180Y-94119047D01*
X208545180Y-94119047D02*
X208497561Y-94214285D01*
X208497561Y-94214285D02*
X208449942Y-94261904D01*
X208449942Y-94261904D02*
X208354704Y-94309523D01*
X208354704Y-94309523D02*
X208259466Y-94309523D01*
X208259466Y-94309523D02*
X208116609Y-94261904D01*
X208116609Y-94261904D02*
X207545180Y-93690476D01*
X207545180Y-93690476D02*
X207545180Y-94309523D01*
X216844880Y-89690000D02*
X216606785Y-89690000D01*
X216702023Y-89451905D02*
X216606785Y-89690000D01*
X216606785Y-89690000D02*
X216702023Y-89928095D01*
X216416309Y-89547143D02*
X216606785Y-89690000D01*
X216606785Y-89690000D02*
X216416309Y-89832857D01*
X215754519Y-89689999D02*
X215992614Y-89689999D01*
X215897376Y-89928094D02*
X215992614Y-89689999D01*
X215992614Y-89689999D02*
X215897376Y-89451904D01*
X216183090Y-89832856D02*
X215992614Y-89689999D01*
X215992614Y-89689999D02*
X216183090Y-89547142D01*
X214666666Y-111074819D02*
X214666666Y-111789104D01*
X214666666Y-111789104D02*
X214619047Y-111931961D01*
X214619047Y-111931961D02*
X214523809Y-112027200D01*
X214523809Y-112027200D02*
X214380952Y-112074819D01*
X214380952Y-112074819D02*
X214285714Y-112074819D01*
X215666666Y-112074819D02*
X215095238Y-112074819D01*
X215380952Y-112074819D02*
X215380952Y-111074819D01*
X215380952Y-111074819D02*
X215285714Y-111217676D01*
X215285714Y-111217676D02*
X215190476Y-111312914D01*
X215190476Y-111312914D02*
X215095238Y-111360533D01*
X194491905Y-128994819D02*
X194491905Y-127994819D01*
X194491905Y-127994819D02*
X194730000Y-127994819D01*
X194730000Y-127994819D02*
X194872857Y-128042438D01*
X194872857Y-128042438D02*
X194968095Y-128137676D01*
X194968095Y-128137676D02*
X195015714Y-128232914D01*
X195015714Y-128232914D02*
X195063333Y-128423390D01*
X195063333Y-128423390D02*
X195063333Y-128566247D01*
X195063333Y-128566247D02*
X195015714Y-128756723D01*
X195015714Y-128756723D02*
X194968095Y-128851961D01*
X194968095Y-128851961D02*
X194872857Y-128947200D01*
X194872857Y-128947200D02*
X194730000Y-128994819D01*
X194730000Y-128994819D02*
X194491905Y-128994819D01*
X195968095Y-127994819D02*
X195491905Y-127994819D01*
X195491905Y-127994819D02*
X195444286Y-128471009D01*
X195444286Y-128471009D02*
X195491905Y-128423390D01*
X195491905Y-128423390D02*
X195587143Y-128375771D01*
X195587143Y-128375771D02*
X195825238Y-128375771D01*
X195825238Y-128375771D02*
X195920476Y-128423390D01*
X195920476Y-128423390D02*
X195968095Y-128471009D01*
X195968095Y-128471009D02*
X196015714Y-128566247D01*
X196015714Y-128566247D02*
X196015714Y-128804342D01*
X196015714Y-128804342D02*
X195968095Y-128899580D01*
X195968095Y-128899580D02*
X195920476Y-128947200D01*
X195920476Y-128947200D02*
X195825238Y-128994819D01*
X195825238Y-128994819D02*
X195587143Y-128994819D01*
X195587143Y-128994819D02*
X195491905Y-128947200D01*
X195491905Y-128947200D02*
X195444286Y-128899580D01*
X229261905Y-112994819D02*
X229261905Y-111994819D01*
X229261905Y-111994819D02*
X229500000Y-111994819D01*
X229500000Y-111994819D02*
X229642857Y-112042438D01*
X229642857Y-112042438D02*
X229738095Y-112137676D01*
X229738095Y-112137676D02*
X229785714Y-112232914D01*
X229785714Y-112232914D02*
X229833333Y-112423390D01*
X229833333Y-112423390D02*
X229833333Y-112566247D01*
X229833333Y-112566247D02*
X229785714Y-112756723D01*
X229785714Y-112756723D02*
X229738095Y-112851961D01*
X229738095Y-112851961D02*
X229642857Y-112947200D01*
X229642857Y-112947200D02*
X229500000Y-112994819D01*
X229500000Y-112994819D02*
X229261905Y-112994819D01*
X230166667Y-111994819D02*
X230833333Y-111994819D01*
X230833333Y-111994819D02*
X230404762Y-112994819D01*
X219761905Y-126994819D02*
X219761905Y-125994819D01*
X219761905Y-125994819D02*
X220000000Y-125994819D01*
X220000000Y-125994819D02*
X220142857Y-126042438D01*
X220142857Y-126042438D02*
X220238095Y-126137676D01*
X220238095Y-126137676D02*
X220285714Y-126232914D01*
X220285714Y-126232914D02*
X220333333Y-126423390D01*
X220333333Y-126423390D02*
X220333333Y-126566247D01*
X220333333Y-126566247D02*
X220285714Y-126756723D01*
X220285714Y-126756723D02*
X220238095Y-126851961D01*
X220238095Y-126851961D02*
X220142857Y-126947200D01*
X220142857Y-126947200D02*
X220000000Y-126994819D01*
X220000000Y-126994819D02*
X219761905Y-126994819D01*
X221190476Y-125994819D02*
X221000000Y-125994819D01*
X221000000Y-125994819D02*
X220904762Y-126042438D01*
X220904762Y-126042438D02*
X220857143Y-126090057D01*
X220857143Y-126090057D02*
X220761905Y-126232914D01*
X220761905Y-126232914D02*
X220714286Y-126423390D01*
X220714286Y-126423390D02*
X220714286Y-126804342D01*
X220714286Y-126804342D02*
X220761905Y-126899580D01*
X220761905Y-126899580D02*
X220809524Y-126947200D01*
X220809524Y-126947200D02*
X220904762Y-126994819D01*
X220904762Y-126994819D02*
X221095238Y-126994819D01*
X221095238Y-126994819D02*
X221190476Y-126947200D01*
X221190476Y-126947200D02*
X221238095Y-126899580D01*
X221238095Y-126899580D02*
X221285714Y-126804342D01*
X221285714Y-126804342D02*
X221285714Y-126566247D01*
X221285714Y-126566247D02*
X221238095Y-126471009D01*
X221238095Y-126471009D02*
X221190476Y-126423390D01*
X221190476Y-126423390D02*
X221095238Y-126375771D01*
X221095238Y-126375771D02*
X220904762Y-126375771D01*
X220904762Y-126375771D02*
X220809524Y-126423390D01*
X220809524Y-126423390D02*
X220761905Y-126471009D01*
X220761905Y-126471009D02*
X220714286Y-126566247D01*
X217991905Y-76494819D02*
X217991905Y-75494819D01*
X217991905Y-75494819D02*
X218230000Y-75494819D01*
X218230000Y-75494819D02*
X218372857Y-75542438D01*
X218372857Y-75542438D02*
X218468095Y-75637676D01*
X218468095Y-75637676D02*
X218515714Y-75732914D01*
X218515714Y-75732914D02*
X218563333Y-75923390D01*
X218563333Y-75923390D02*
X218563333Y-76066247D01*
X218563333Y-76066247D02*
X218515714Y-76256723D01*
X218515714Y-76256723D02*
X218468095Y-76351961D01*
X218468095Y-76351961D02*
X218372857Y-76447200D01*
X218372857Y-76447200D02*
X218230000Y-76494819D01*
X218230000Y-76494819D02*
X217991905Y-76494819D01*
X219039524Y-76494819D02*
X219230000Y-76494819D01*
X219230000Y-76494819D02*
X219325238Y-76447200D01*
X219325238Y-76447200D02*
X219372857Y-76399580D01*
X219372857Y-76399580D02*
X219468095Y-76256723D01*
X219468095Y-76256723D02*
X219515714Y-76066247D01*
X219515714Y-76066247D02*
X219515714Y-75685295D01*
X219515714Y-75685295D02*
X219468095Y-75590057D01*
X219468095Y-75590057D02*
X219420476Y-75542438D01*
X219420476Y-75542438D02*
X219325238Y-75494819D01*
X219325238Y-75494819D02*
X219134762Y-75494819D01*
X219134762Y-75494819D02*
X219039524Y-75542438D01*
X219039524Y-75542438D02*
X218991905Y-75590057D01*
X218991905Y-75590057D02*
X218944286Y-75685295D01*
X218944286Y-75685295D02*
X218944286Y-75923390D01*
X218944286Y-75923390D02*
X218991905Y-76018628D01*
X218991905Y-76018628D02*
X219039524Y-76066247D01*
X219039524Y-76066247D02*
X219134762Y-76113866D01*
X219134762Y-76113866D02*
X219325238Y-76113866D01*
X219325238Y-76113866D02*
X219420476Y-76066247D01*
X219420476Y-76066247D02*
X219468095Y-76018628D01*
X219468095Y-76018628D02*
X219515714Y-75923390D01*
X217515714Y-61494819D02*
X217515714Y-60494819D01*
X217515714Y-60494819D02*
X217753809Y-60494819D01*
X217753809Y-60494819D02*
X217896666Y-60542438D01*
X217896666Y-60542438D02*
X217991904Y-60637676D01*
X217991904Y-60637676D02*
X218039523Y-60732914D01*
X218039523Y-60732914D02*
X218087142Y-60923390D01*
X218087142Y-60923390D02*
X218087142Y-61066247D01*
X218087142Y-61066247D02*
X218039523Y-61256723D01*
X218039523Y-61256723D02*
X217991904Y-61351961D01*
X217991904Y-61351961D02*
X217896666Y-61447200D01*
X217896666Y-61447200D02*
X217753809Y-61494819D01*
X217753809Y-61494819D02*
X217515714Y-61494819D01*
X219039523Y-61494819D02*
X218468095Y-61494819D01*
X218753809Y-61494819D02*
X218753809Y-60494819D01*
X218753809Y-60494819D02*
X218658571Y-60637676D01*
X218658571Y-60637676D02*
X218563333Y-60732914D01*
X218563333Y-60732914D02*
X218468095Y-60780533D01*
X219658571Y-60494819D02*
X219753809Y-60494819D01*
X219753809Y-60494819D02*
X219849047Y-60542438D01*
X219849047Y-60542438D02*
X219896666Y-60590057D01*
X219896666Y-60590057D02*
X219944285Y-60685295D01*
X219944285Y-60685295D02*
X219991904Y-60875771D01*
X219991904Y-60875771D02*
X219991904Y-61113866D01*
X219991904Y-61113866D02*
X219944285Y-61304342D01*
X219944285Y-61304342D02*
X219896666Y-61399580D01*
X219896666Y-61399580D02*
X219849047Y-61447200D01*
X219849047Y-61447200D02*
X219753809Y-61494819D01*
X219753809Y-61494819D02*
X219658571Y-61494819D01*
X219658571Y-61494819D02*
X219563333Y-61447200D01*
X219563333Y-61447200D02*
X219515714Y-61399580D01*
X219515714Y-61399580D02*
X219468095Y-61304342D01*
X219468095Y-61304342D02*
X219420476Y-61113866D01*
X219420476Y-61113866D02*
X219420476Y-60875771D01*
X219420476Y-60875771D02*
X219468095Y-60685295D01*
X219468095Y-60685295D02*
X219515714Y-60590057D01*
X219515714Y-60590057D02*
X219563333Y-60542438D01*
X219563333Y-60542438D02*
X219658571Y-60494819D01*
X211594819Y-105266904D02*
X212404342Y-105266904D01*
X212404342Y-105266904D02*
X212499580Y-105219285D01*
X212499580Y-105219285D02*
X212547200Y-105171666D01*
X212547200Y-105171666D02*
X212594819Y-105076428D01*
X212594819Y-105076428D02*
X212594819Y-104885952D01*
X212594819Y-104885952D02*
X212547200Y-104790714D01*
X212547200Y-104790714D02*
X212499580Y-104743095D01*
X212499580Y-104743095D02*
X212404342Y-104695476D01*
X212404342Y-104695476D02*
X211594819Y-104695476D01*
X212594819Y-103695476D02*
X212594819Y-104266904D01*
X212594819Y-103981190D02*
X211594819Y-103981190D01*
X211594819Y-103981190D02*
X211737676Y-104076428D01*
X211737676Y-104076428D02*
X211832914Y-104171666D01*
X211832914Y-104171666D02*
X211880533Y-104266904D01*
X205364761Y-113954819D02*
X205031428Y-113478628D01*
X204793333Y-113954819D02*
X204793333Y-112954819D01*
X204793333Y-112954819D02*
X205174285Y-112954819D01*
X205174285Y-112954819D02*
X205269523Y-113002438D01*
X205269523Y-113002438D02*
X205317142Y-113050057D01*
X205317142Y-113050057D02*
X205364761Y-113145295D01*
X205364761Y-113145295D02*
X205364761Y-113288152D01*
X205364761Y-113288152D02*
X205317142Y-113383390D01*
X205317142Y-113383390D02*
X205269523Y-113431009D01*
X205269523Y-113431009D02*
X205174285Y-113478628D01*
X205174285Y-113478628D02*
X204793333Y-113478628D01*
X205650476Y-112954819D02*
X205983809Y-113954819D01*
X205983809Y-113954819D02*
X206317142Y-112954819D01*
X207174285Y-113954819D02*
X206602857Y-113954819D01*
X206888571Y-113954819D02*
X206888571Y-112954819D01*
X206888571Y-112954819D02*
X206793333Y-113097676D01*
X206793333Y-113097676D02*
X206698095Y-113192914D01*
X206698095Y-113192914D02*
X206602857Y-113240533D01*
X221761905Y-94494819D02*
X221761905Y-93494819D01*
X221761905Y-93494819D02*
X222000000Y-93494819D01*
X222000000Y-93494819D02*
X222142857Y-93542438D01*
X222142857Y-93542438D02*
X222238095Y-93637676D01*
X222238095Y-93637676D02*
X222285714Y-93732914D01*
X222285714Y-93732914D02*
X222333333Y-93923390D01*
X222333333Y-93923390D02*
X222333333Y-94066247D01*
X222333333Y-94066247D02*
X222285714Y-94256723D01*
X222285714Y-94256723D02*
X222238095Y-94351961D01*
X222238095Y-94351961D02*
X222142857Y-94447200D01*
X222142857Y-94447200D02*
X222000000Y-94494819D01*
X222000000Y-94494819D02*
X221761905Y-94494819D01*
X222904762Y-93923390D02*
X222809524Y-93875771D01*
X222809524Y-93875771D02*
X222761905Y-93828152D01*
X222761905Y-93828152D02*
X222714286Y-93732914D01*
X222714286Y-93732914D02*
X222714286Y-93685295D01*
X222714286Y-93685295D02*
X222761905Y-93590057D01*
X222761905Y-93590057D02*
X222809524Y-93542438D01*
X222809524Y-93542438D02*
X222904762Y-93494819D01*
X222904762Y-93494819D02*
X223095238Y-93494819D01*
X223095238Y-93494819D02*
X223190476Y-93542438D01*
X223190476Y-93542438D02*
X223238095Y-93590057D01*
X223238095Y-93590057D02*
X223285714Y-93685295D01*
X223285714Y-93685295D02*
X223285714Y-93732914D01*
X223285714Y-93732914D02*
X223238095Y-93828152D01*
X223238095Y-93828152D02*
X223190476Y-93875771D01*
X223190476Y-93875771D02*
X223095238Y-93923390D01*
X223095238Y-93923390D02*
X222904762Y-93923390D01*
X222904762Y-93923390D02*
X222809524Y-93971009D01*
X222809524Y-93971009D02*
X222761905Y-94018628D01*
X222761905Y-94018628D02*
X222714286Y-94113866D01*
X222714286Y-94113866D02*
X222714286Y-94304342D01*
X222714286Y-94304342D02*
X222761905Y-94399580D01*
X222761905Y-94399580D02*
X222809524Y-94447200D01*
X222809524Y-94447200D02*
X222904762Y-94494819D01*
X222904762Y-94494819D02*
X223095238Y-94494819D01*
X223095238Y-94494819D02*
X223190476Y-94447200D01*
X223190476Y-94447200D02*
X223238095Y-94399580D01*
X223238095Y-94399580D02*
X223285714Y-94304342D01*
X223285714Y-94304342D02*
X223285714Y-94113866D01*
X223285714Y-94113866D02*
X223238095Y-94018628D01*
X223238095Y-94018628D02*
X223190476Y-93971009D01*
X223190476Y-93971009D02*
X223095238Y-93923390D01*
X181491905Y-113494819D02*
X181491905Y-112494819D01*
X181491905Y-112494819D02*
X181730000Y-112494819D01*
X181730000Y-112494819D02*
X181872857Y-112542438D01*
X181872857Y-112542438D02*
X181968095Y-112637676D01*
X181968095Y-112637676D02*
X182015714Y-112732914D01*
X182015714Y-112732914D02*
X182063333Y-112923390D01*
X182063333Y-112923390D02*
X182063333Y-113066247D01*
X182063333Y-113066247D02*
X182015714Y-113256723D01*
X182015714Y-113256723D02*
X181968095Y-113351961D01*
X181968095Y-113351961D02*
X181872857Y-113447200D01*
X181872857Y-113447200D02*
X181730000Y-113494819D01*
X181730000Y-113494819D02*
X181491905Y-113494819D01*
X182920476Y-112828152D02*
X182920476Y-113494819D01*
X182682381Y-112447200D02*
X182444286Y-113161485D01*
X182444286Y-113161485D02*
X183063333Y-113161485D01*
X187491905Y-95494819D02*
X187491905Y-94494819D01*
X187491905Y-94494819D02*
X187730000Y-94494819D01*
X187730000Y-94494819D02*
X187872857Y-94542438D01*
X187872857Y-94542438D02*
X187968095Y-94637676D01*
X187968095Y-94637676D02*
X188015714Y-94732914D01*
X188015714Y-94732914D02*
X188063333Y-94923390D01*
X188063333Y-94923390D02*
X188063333Y-95066247D01*
X188063333Y-95066247D02*
X188015714Y-95256723D01*
X188015714Y-95256723D02*
X187968095Y-95351961D01*
X187968095Y-95351961D02*
X187872857Y-95447200D01*
X187872857Y-95447200D02*
X187730000Y-95494819D01*
X187730000Y-95494819D02*
X187491905Y-95494819D01*
X188396667Y-94494819D02*
X189015714Y-94494819D01*
X189015714Y-94494819D02*
X188682381Y-94875771D01*
X188682381Y-94875771D02*
X188825238Y-94875771D01*
X188825238Y-94875771D02*
X188920476Y-94923390D01*
X188920476Y-94923390D02*
X188968095Y-94971009D01*
X188968095Y-94971009D02*
X189015714Y-95066247D01*
X189015714Y-95066247D02*
X189015714Y-95304342D01*
X189015714Y-95304342D02*
X188968095Y-95399580D01*
X188968095Y-95399580D02*
X188920476Y-95447200D01*
X188920476Y-95447200D02*
X188825238Y-95494819D01*
X188825238Y-95494819D02*
X188539524Y-95494819D01*
X188539524Y-95494819D02*
X188444286Y-95447200D01*
X188444286Y-95447200D02*
X188396667Y-95399580D01*
X191761905Y-76994819D02*
X191761905Y-75994819D01*
X191761905Y-75994819D02*
X192000000Y-75994819D01*
X192000000Y-75994819D02*
X192142857Y-76042438D01*
X192142857Y-76042438D02*
X192238095Y-76137676D01*
X192238095Y-76137676D02*
X192285714Y-76232914D01*
X192285714Y-76232914D02*
X192333333Y-76423390D01*
X192333333Y-76423390D02*
X192333333Y-76566247D01*
X192333333Y-76566247D02*
X192285714Y-76756723D01*
X192285714Y-76756723D02*
X192238095Y-76851961D01*
X192238095Y-76851961D02*
X192142857Y-76947200D01*
X192142857Y-76947200D02*
X192000000Y-76994819D01*
X192000000Y-76994819D02*
X191761905Y-76994819D01*
X192714286Y-76090057D02*
X192761905Y-76042438D01*
X192761905Y-76042438D02*
X192857143Y-75994819D01*
X192857143Y-75994819D02*
X193095238Y-75994819D01*
X193095238Y-75994819D02*
X193190476Y-76042438D01*
X193190476Y-76042438D02*
X193238095Y-76090057D01*
X193238095Y-76090057D02*
X193285714Y-76185295D01*
X193285714Y-76185295D02*
X193285714Y-76280533D01*
X193285714Y-76280533D02*
X193238095Y-76423390D01*
X193238095Y-76423390D02*
X192666667Y-76994819D01*
X192666667Y-76994819D02*
X193285714Y-76994819D01*
X192857565Y-61967120D02*
X192857565Y-60967120D01*
X192857565Y-60967120D02*
X193095660Y-60967120D01*
X193095660Y-60967120D02*
X193238517Y-61014739D01*
X193238517Y-61014739D02*
X193333755Y-61109977D01*
X193333755Y-61109977D02*
X193381374Y-61205215D01*
X193381374Y-61205215D02*
X193428993Y-61395691D01*
X193428993Y-61395691D02*
X193428993Y-61538548D01*
X193428993Y-61538548D02*
X193381374Y-61729024D01*
X193381374Y-61729024D02*
X193333755Y-61824262D01*
X193333755Y-61824262D02*
X193238517Y-61919501D01*
X193238517Y-61919501D02*
X193095660Y-61967120D01*
X193095660Y-61967120D02*
X192857565Y-61967120D01*
X194381374Y-61967120D02*
X193809946Y-61967120D01*
X194095660Y-61967120D02*
X194095660Y-60967120D01*
X194095660Y-60967120D02*
X194000422Y-61109977D01*
X194000422Y-61109977D02*
X193905184Y-61205215D01*
X193905184Y-61205215D02*
X193809946Y-61252834D01*
X193921939Y-100859580D02*
X193874320Y-100907200D01*
X193874320Y-100907200D02*
X193731463Y-100954819D01*
X193731463Y-100954819D02*
X193636225Y-100954819D01*
X193636225Y-100954819D02*
X193493368Y-100907200D01*
X193493368Y-100907200D02*
X193398130Y-100811961D01*
X193398130Y-100811961D02*
X193350511Y-100716723D01*
X193350511Y-100716723D02*
X193302892Y-100526247D01*
X193302892Y-100526247D02*
X193302892Y-100383390D01*
X193302892Y-100383390D02*
X193350511Y-100192914D01*
X193350511Y-100192914D02*
X193398130Y-100097676D01*
X193398130Y-100097676D02*
X193493368Y-100002438D01*
X193493368Y-100002438D02*
X193636225Y-99954819D01*
X193636225Y-99954819D02*
X193731463Y-99954819D01*
X193731463Y-99954819D02*
X193874320Y-100002438D01*
X193874320Y-100002438D02*
X193921939Y-100050057D01*
X194874320Y-100954819D02*
X194302892Y-100954819D01*
X194588606Y-100954819D02*
X194588606Y-99954819D01*
X194588606Y-99954819D02*
X194493368Y-100097676D01*
X194493368Y-100097676D02*
X194398130Y-100192914D01*
X194398130Y-100192914D02*
X194302892Y-100240533D01*
%TO.C,C2*%
D14*
X198664888Y-116500000D02*
G75*
G02*
X193424888Y-116500000I-2620000J0D01*
G01*
X193424888Y-116500000D02*
G75*
G02*
X198664888Y-116500000I2620000J0D01*
G01*
X198644888Y-116217000D02*
X198644888Y-116783000D01*
X198604888Y-115983000D02*
X198604888Y-117017000D01*
X198564888Y-115823000D02*
X198564888Y-117177000D01*
X198524888Y-115695000D02*
X198524888Y-117305000D01*
X198484888Y-115586000D02*
X198484888Y-117414000D01*
X198444888Y-115489000D02*
X198444888Y-117511000D01*
X198404888Y-115402000D02*
X198404888Y-117598000D01*
X198364888Y-115323000D02*
X198364888Y-117677000D01*
X198324888Y-115249000D02*
X198324888Y-117751000D01*
X198284888Y-115181000D02*
X198284888Y-117819000D01*
X198244888Y-115117000D02*
X198244888Y-117883000D01*
X198204888Y-115057000D02*
X198204888Y-117943000D01*
X198164888Y-115001000D02*
X198164888Y-117999000D01*
X198124888Y-114947000D02*
X198124888Y-118053000D01*
X198084888Y-114896000D02*
X198084888Y-118104000D01*
X198044888Y-117540000D02*
X198044888Y-118152000D01*
X198044888Y-114848000D02*
X198044888Y-115460000D01*
X198004888Y-117540000D02*
X198004888Y-118199000D01*
X198004888Y-114801000D02*
X198004888Y-115460000D01*
X197964888Y-117540000D02*
X197964888Y-118243000D01*
X197964888Y-114757000D02*
X197964888Y-115460000D01*
X197924888Y-117540000D02*
X197924888Y-118285000D01*
X197924888Y-114715000D02*
X197924888Y-115460000D01*
X197884888Y-117540000D02*
X197884888Y-118325000D01*
X197884888Y-114675000D02*
X197884888Y-115460000D01*
X197844888Y-117540000D02*
X197844888Y-118364000D01*
X197844888Y-114636000D02*
X197844888Y-115460000D01*
X197804888Y-117540000D02*
X197804888Y-118401000D01*
X197804888Y-114599000D02*
X197804888Y-115460000D01*
X197764888Y-117540000D02*
X197764888Y-118436000D01*
X197764888Y-114564000D02*
X197764888Y-115460000D01*
X197724888Y-117540000D02*
X197724888Y-118470000D01*
X197724888Y-114530000D02*
X197724888Y-115460000D01*
X197684888Y-117540000D02*
X197684888Y-118503000D01*
X197684888Y-114497000D02*
X197684888Y-115460000D01*
X197644888Y-117540000D02*
X197644888Y-118535000D01*
X197644888Y-114465000D02*
X197644888Y-115460000D01*
X197604888Y-117540000D02*
X197604888Y-118565000D01*
X197604888Y-114435000D02*
X197604888Y-115460000D01*
X197564888Y-117540000D02*
X197564888Y-118594000D01*
X197564888Y-114406000D02*
X197564888Y-115460000D01*
X197524888Y-117540000D02*
X197524888Y-118622000D01*
X197524888Y-114378000D02*
X197524888Y-115460000D01*
X197484888Y-117540000D02*
X197484888Y-118649000D01*
X197484888Y-114351000D02*
X197484888Y-115460000D01*
X197444888Y-117540000D02*
X197444888Y-118675000D01*
X197444888Y-114325000D02*
X197444888Y-115460000D01*
X197404888Y-117540000D02*
X197404888Y-118699000D01*
X197404888Y-114301000D02*
X197404888Y-115460000D01*
X197364888Y-117540000D02*
X197364888Y-118723000D01*
X197364888Y-114277000D02*
X197364888Y-115460000D01*
X197324888Y-117540000D02*
X197324888Y-118746000D01*
X197324888Y-114254000D02*
X197324888Y-115460000D01*
X197284888Y-117540000D02*
X197284888Y-118768000D01*
X197284888Y-114232000D02*
X197284888Y-115460000D01*
X197244888Y-117540000D02*
X197244888Y-118789000D01*
X197244888Y-114211000D02*
X197244888Y-115460000D01*
X197204888Y-117540000D02*
X197204888Y-118809000D01*
X197204888Y-114191000D02*
X197204888Y-115460000D01*
X197164888Y-117540000D02*
X197164888Y-118829000D01*
X197164888Y-114171000D02*
X197164888Y-115460000D01*
X197124888Y-117540000D02*
X197124888Y-118847000D01*
X197124888Y-114153000D02*
X197124888Y-115460000D01*
X197084888Y-117540000D02*
X197084888Y-118865000D01*
X197084888Y-114135000D02*
X197084888Y-115460000D01*
X197044888Y-117540000D02*
X197044888Y-118882000D01*
X197044888Y-114118000D02*
X197044888Y-115460000D01*
X197004888Y-117540000D02*
X197004888Y-118898000D01*
X197004888Y-114102000D02*
X197004888Y-115460000D01*
X196964888Y-117540000D02*
X196964888Y-118913000D01*
X196964888Y-114087000D02*
X196964888Y-115460000D01*
X196924888Y-117540000D02*
X196924888Y-118928000D01*
X196924888Y-114072000D02*
X196924888Y-115460000D01*
X196884888Y-117540000D02*
X196884888Y-118942000D01*
X196884888Y-114058000D02*
X196884888Y-115460000D01*
X196844888Y-117540000D02*
X196844888Y-118955000D01*
X196844888Y-114045000D02*
X196844888Y-115460000D01*
X196804888Y-117540000D02*
X196804888Y-118967000D01*
X196804888Y-114033000D02*
X196804888Y-115460000D01*
X196764888Y-117540000D02*
X196764888Y-118979000D01*
X196764888Y-114021000D02*
X196764888Y-115460000D01*
X196724888Y-117540000D02*
X196724888Y-118990000D01*
X196724888Y-114010000D02*
X196724888Y-115460000D01*
X196684888Y-117540000D02*
X196684888Y-119001000D01*
X196684888Y-113999000D02*
X196684888Y-115460000D01*
X196644888Y-117540000D02*
X196644888Y-119010000D01*
X196644888Y-113990000D02*
X196644888Y-115460000D01*
X196604888Y-117540000D02*
X196604888Y-119019000D01*
X196604888Y-113981000D02*
X196604888Y-115460000D01*
X196564888Y-117540000D02*
X196564888Y-119028000D01*
X196564888Y-113972000D02*
X196564888Y-115460000D01*
X196524888Y-117540000D02*
X196524888Y-119036000D01*
X196524888Y-113964000D02*
X196524888Y-115460000D01*
X196484888Y-117540000D02*
X196484888Y-119043000D01*
X196484888Y-113957000D02*
X196484888Y-115460000D01*
X196444888Y-117540000D02*
X196444888Y-119049000D01*
X196444888Y-113951000D02*
X196444888Y-115460000D01*
X196404888Y-117540000D02*
X196404888Y-119055000D01*
X196404888Y-113945000D02*
X196404888Y-115460000D01*
X196364888Y-117540000D02*
X196364888Y-119060000D01*
X196364888Y-113940000D02*
X196364888Y-115460000D01*
X196324888Y-117540000D02*
X196324888Y-119065000D01*
X196324888Y-113935000D02*
X196324888Y-115460000D01*
X196284888Y-117540000D02*
X196284888Y-119069000D01*
X196284888Y-113931000D02*
X196284888Y-115460000D01*
X196244888Y-117540000D02*
X196244888Y-119072000D01*
X196244888Y-113928000D02*
X196244888Y-115460000D01*
X196204888Y-117540000D02*
X196204888Y-119075000D01*
X196204888Y-113925000D02*
X196204888Y-115460000D01*
X196164888Y-117540000D02*
X196164888Y-119077000D01*
X196164888Y-113923000D02*
X196164888Y-115460000D01*
X196124888Y-117540000D02*
X196124888Y-119079000D01*
X196124888Y-113921000D02*
X196124888Y-115460000D01*
X196084888Y-117540000D02*
X196084888Y-119080000D01*
X196084888Y-113920000D02*
X196084888Y-115460000D01*
X196044888Y-117540000D02*
X196044888Y-119080000D01*
X196044888Y-113920000D02*
X196044888Y-115460000D01*
X193490113Y-114775000D02*
X193490113Y-115275000D01*
X193240113Y-115025000D02*
X193740113Y-115025000D01*
%TO.C,U2*%
D15*
X213188569Y-96802000D02*
X214051431Y-96802000D01*
X210648569Y-96802000D02*
X211511431Y-96802000D01*
X208108569Y-96802000D02*
X208971431Y-96802000D01*
X205568569Y-96802000D02*
X206431431Y-96802000D01*
X203028569Y-96802000D02*
X203891431Y-96802000D01*
X200488569Y-96802000D02*
X201351431Y-96802000D01*
X198811431Y-90198000D02*
X197948569Y-90198000D01*
X201351431Y-90198000D02*
X200488569Y-90198000D01*
X203891431Y-90198000D02*
X203028569Y-90198000D01*
X206431431Y-90198000D02*
X205568569Y-90198000D01*
X208971431Y-90198000D02*
X208108569Y-90198000D01*
X211511431Y-90198000D02*
X210648569Y-90198000D01*
X215842500Y-93804800D02*
G75*
G02*
X215842500Y-93195200I0J304800D01*
G01*
X213909560Y-90198000D02*
X213188569Y-90198000D01*
X215842500Y-96802000D02*
X215842500Y-90471165D01*
X197948569Y-96802000D02*
X198811431Y-96802000D01*
X196157500Y-90198000D02*
X196157500Y-96802000D01*
%TO.C,R2*%
D14*
X221770000Y-108870000D02*
X221770000Y-108540000D01*
X221770000Y-106130000D02*
X221770000Y-106460000D01*
X215230000Y-108870000D02*
X221770000Y-108870000D01*
X215230000Y-108540000D02*
X215230000Y-108870000D01*
X215230000Y-106460000D02*
X215230000Y-106130000D01*
X215230000Y-106130000D02*
X221770000Y-106130000D01*
%TO.C,J1*%
X213620000Y-112620000D02*
X215000000Y-112620000D01*
X213620000Y-114000000D02*
X213620000Y-112620000D01*
X213620000Y-115270000D02*
X213620000Y-117920000D01*
X213620000Y-115270000D02*
X216380000Y-115270000D01*
X213620000Y-117920000D02*
X216380000Y-117920000D01*
X216380000Y-115270000D02*
X216380000Y-117920000D01*
%TO.C,D5*%
X196901437Y-132580000D02*
G75*
G02*
X193670000Y-132735516I-1671437J1080000D01*
G01*
X196270961Y-132580000D02*
G75*
G02*
X194189039Y-132580000I-1040961J1080000D01*
G01*
X194189039Y-130420000D02*
G75*
G02*
X196270961Y-130420000I1040961J-1080000D01*
G01*
X193670000Y-130264484D02*
G75*
G02*
X196901437Y-130420000I1560000J-1235516D01*
G01*
X193670000Y-132580000D02*
X193670000Y-132736000D01*
X193670000Y-130264000D02*
X193670000Y-130420000D01*
%TO.C,D7*%
X231671437Y-116580000D02*
G75*
G02*
X228440000Y-116735516I-1671437J1080000D01*
G01*
X231040961Y-116580000D02*
G75*
G02*
X228959039Y-116580000I-1040961J1080000D01*
G01*
X228959039Y-114420000D02*
G75*
G02*
X231040961Y-114420000I1040961J-1080000D01*
G01*
X228440000Y-114264484D02*
G75*
G02*
X231671437Y-114420000I1560000J-1235516D01*
G01*
X228440000Y-116580000D02*
X228440000Y-116736000D01*
X228440000Y-114264000D02*
X228440000Y-114420000D01*
%TO.C,D6*%
X218940000Y-128264000D02*
X218940000Y-128420000D01*
X218940000Y-130580000D02*
X218940000Y-130736000D01*
X218940000Y-128264484D02*
G75*
G02*
X222171437Y-128420000I1560000J-1235516D01*
G01*
X219459039Y-128420000D02*
G75*
G02*
X221540961Y-128420000I1040961J-1080000D01*
G01*
X221540961Y-130580000D02*
G75*
G02*
X219459039Y-130580000I-1040961J1080000D01*
G01*
X222171437Y-130580000D02*
G75*
G02*
X218940000Y-130735516I-1671437J1080000D01*
G01*
%TO.C,D9*%
X220401437Y-80080000D02*
G75*
G02*
X217170000Y-80235516I-1671437J1080000D01*
G01*
X219770961Y-80080000D02*
G75*
G02*
X217689039Y-80080000I-1040961J1080000D01*
G01*
X217689039Y-77920000D02*
G75*
G02*
X219770961Y-77920000I1040961J-1080000D01*
G01*
X217170000Y-77764484D02*
G75*
G02*
X220401437Y-77920000I1560000J-1235516D01*
G01*
X217170000Y-80080000D02*
X217170000Y-80236000D01*
X217170000Y-77764000D02*
X217170000Y-77920000D01*
%TO.C,D10*%
X220401437Y-65080000D02*
G75*
G02*
X217170000Y-65235516I-1671437J1080000D01*
G01*
X219770961Y-65080000D02*
G75*
G02*
X217689039Y-65080000I-1040961J1080000D01*
G01*
X217689039Y-62920000D02*
G75*
G02*
X219770961Y-62920000I1040961J-1080000D01*
G01*
X217170000Y-62764484D02*
G75*
G02*
X220401437Y-62920000I1560000J-1235516D01*
G01*
X217170000Y-65080000D02*
X217170000Y-65236000D01*
X217170000Y-62764000D02*
X217170000Y-62920000D01*
%TO.C,U1*%
X211140000Y-101855000D02*
X200860000Y-101855000D01*
X200860000Y-101855000D02*
X200860000Y-107155000D01*
X211140000Y-103505000D02*
X211140000Y-101855000D01*
X211140000Y-107155000D02*
X211140000Y-105505000D01*
X200860000Y-107155000D02*
X211140000Y-107155000D01*
X211140000Y-105505000D02*
G75*
G02*
X211140000Y-103505000I0J1000000D01*
G01*
%TO.C,RV1*%
X201000000Y-114390000D02*
X201000000Y-119610000D01*
X201000000Y-114390000D02*
X203120000Y-114390000D01*
X201000000Y-119610000D02*
X210920000Y-119610000D01*
X203820000Y-114390000D02*
X210920000Y-114390000D01*
X210920000Y-114390000D02*
X210920000Y-119610000D01*
X203420000Y-114390000D02*
X203180000Y-114060000D01*
X203660000Y-114060000D01*
X203420000Y-114390000D01*
G36*
X203420000Y-114390000D02*
G01*
X203180000Y-114060000D01*
X203660000Y-114060000D01*
X203420000Y-114390000D01*
G37*
%TO.C,R1*%
X215230000Y-102080000D02*
X221770000Y-102080000D01*
X215230000Y-102410000D02*
X215230000Y-102080000D01*
X215230000Y-104490000D02*
X215230000Y-104820000D01*
X215230000Y-104820000D02*
X221770000Y-104820000D01*
X221770000Y-102080000D02*
X221770000Y-102410000D01*
X221770000Y-104820000D02*
X221770000Y-104490000D01*
%TO.C,D8*%
X220940000Y-95764000D02*
X220940000Y-95920000D01*
X220940000Y-98080000D02*
X220940000Y-98236000D01*
X220940000Y-95764484D02*
G75*
G02*
X224171437Y-95920000I1560000J-1235516D01*
G01*
X221459039Y-95920000D02*
G75*
G02*
X223540961Y-95920000I1040961J-1080000D01*
G01*
X223540961Y-98080000D02*
G75*
G02*
X221459039Y-98080000I-1040961J1080000D01*
G01*
X224171437Y-98080000D02*
G75*
G02*
X220940000Y-98235516I-1671437J1080000D01*
G01*
%TO.C,D4*%
X180670000Y-114764000D02*
X180670000Y-114920000D01*
X180670000Y-117080000D02*
X180670000Y-117236000D01*
X180670000Y-114764484D02*
G75*
G02*
X183901437Y-114920000I1560000J-1235516D01*
G01*
X181189039Y-114920000D02*
G75*
G02*
X183270961Y-114920000I1040961J-1080000D01*
G01*
X183270961Y-117080000D02*
G75*
G02*
X181189039Y-117080000I-1040961J1080000D01*
G01*
X183901437Y-117080000D02*
G75*
G02*
X180670000Y-117235516I-1671437J1080000D01*
G01*
%TO.C,D3*%
X186670000Y-96764000D02*
X186670000Y-96920000D01*
X186670000Y-99080000D02*
X186670000Y-99236000D01*
X186670000Y-96764484D02*
G75*
G02*
X189901437Y-96920000I1560000J-1235516D01*
G01*
X187189039Y-96920000D02*
G75*
G02*
X189270961Y-96920000I1040961J-1080000D01*
G01*
X189270961Y-99080000D02*
G75*
G02*
X187189039Y-99080000I-1040961J1080000D01*
G01*
X189901437Y-99080000D02*
G75*
G02*
X186670000Y-99235516I-1671437J1080000D01*
G01*
%TO.C,D2*%
X190940000Y-78264000D02*
X190940000Y-78420000D01*
X190940000Y-80580000D02*
X190940000Y-80736000D01*
X190940000Y-78264484D02*
G75*
G02*
X194171437Y-78420000I1560000J-1235516D01*
G01*
X191459039Y-78420000D02*
G75*
G02*
X193540961Y-78420000I1040961J-1080000D01*
G01*
X193540961Y-80580000D02*
G75*
G02*
X191459039Y-80580000I-1040961J1080000D01*
G01*
X194171437Y-80580000D02*
G75*
G02*
X190940000Y-80735516I-1671437J1080000D01*
G01*
%TO.C,D1*%
X191940000Y-62264000D02*
X191940000Y-62420000D01*
X191940000Y-64580000D02*
X191940000Y-64736000D01*
X191940000Y-62264484D02*
G75*
G02*
X195171437Y-62420000I1560000J-1235516D01*
G01*
X192459039Y-62420000D02*
G75*
G02*
X194540961Y-62420000I1040961J-1080000D01*
G01*
X194540961Y-64580000D02*
G75*
G02*
X192459039Y-64580000I-1040961J1080000D01*
G01*
X195171437Y-64580000D02*
G75*
G02*
X191940000Y-64735516I-1671437J1080000D01*
G01*
%TO.C,C1*%
X189946395Y-103325000D02*
X190696395Y-103325000D01*
X190321395Y-102950000D02*
X190321395Y-103700000D01*
X194088606Y-101670000D02*
X194088606Y-109330000D01*
X194128606Y-101670000D02*
X194128606Y-109330000D01*
X194168606Y-101671000D02*
X194168606Y-109329000D01*
X194208606Y-101672000D02*
X194208606Y-109328000D01*
X194248606Y-101673000D02*
X194248606Y-109327000D01*
X194288606Y-101675000D02*
X194288606Y-109325000D01*
X194328606Y-101677000D02*
X194328606Y-104460000D01*
X194328606Y-106540000D02*
X194328606Y-109323000D01*
X194368606Y-101680000D02*
X194368606Y-104460000D01*
X194368606Y-106540000D02*
X194368606Y-109320000D01*
X194408606Y-101683000D02*
X194408606Y-104460000D01*
X194408606Y-106540000D02*
X194408606Y-109317000D01*
X194448606Y-101687000D02*
X194448606Y-104460000D01*
X194448606Y-106540000D02*
X194448606Y-109313000D01*
X194488606Y-101691000D02*
X194488606Y-104460000D01*
X194488606Y-106540000D02*
X194488606Y-109309000D01*
X194528606Y-101695000D02*
X194528606Y-104460000D01*
X194528606Y-106540000D02*
X194528606Y-109305000D01*
X194568606Y-101700000D02*
X194568606Y-104460000D01*
X194568606Y-106540000D02*
X194568606Y-109300000D01*
X194608606Y-101705000D02*
X194608606Y-104460000D01*
X194608606Y-106540000D02*
X194608606Y-109295000D01*
X194648606Y-101711000D02*
X194648606Y-104460000D01*
X194648606Y-106540000D02*
X194648606Y-109289000D01*
X194688606Y-101717000D02*
X194688606Y-104460000D01*
X194688606Y-106540000D02*
X194688606Y-109283000D01*
X194728606Y-101723000D02*
X194728606Y-104460000D01*
X194728606Y-106540000D02*
X194728606Y-109277000D01*
X194768606Y-101730000D02*
X194768606Y-104460000D01*
X194768606Y-106540000D02*
X194768606Y-109270000D01*
X194808606Y-101738000D02*
X194808606Y-104460000D01*
X194808606Y-106540000D02*
X194808606Y-109262000D01*
X194848606Y-101745000D02*
X194848606Y-104460000D01*
X194848606Y-106540000D02*
X194848606Y-109255000D01*
X194888606Y-101754000D02*
X194888606Y-104460000D01*
X194888606Y-106540000D02*
X194888606Y-109246000D01*
X194928606Y-101762000D02*
X194928606Y-104460000D01*
X194928606Y-106540000D02*
X194928606Y-109238000D01*
X194968606Y-101771000D02*
X194968606Y-104460000D01*
X194968606Y-106540000D02*
X194968606Y-109229000D01*
X195008606Y-101781000D02*
X195008606Y-104460000D01*
X195008606Y-106540000D02*
X195008606Y-109219000D01*
X195048606Y-101791000D02*
X195048606Y-104460000D01*
X195048606Y-106540000D02*
X195048606Y-109209000D01*
X195088606Y-101801000D02*
X195088606Y-104460000D01*
X195088606Y-106540000D02*
X195088606Y-109199000D01*
X195128606Y-101812000D02*
X195128606Y-104460000D01*
X195128606Y-106540000D02*
X195128606Y-109188000D01*
X195168606Y-101824000D02*
X195168606Y-104460000D01*
X195168606Y-106540000D02*
X195168606Y-109176000D01*
X195208606Y-101836000D02*
X195208606Y-104460000D01*
X195208606Y-106540000D02*
X195208606Y-109164000D01*
X195248606Y-101848000D02*
X195248606Y-104460000D01*
X195248606Y-106540000D02*
X195248606Y-109152000D01*
X195288606Y-101861000D02*
X195288606Y-104460000D01*
X195288606Y-106540000D02*
X195288606Y-109139000D01*
X195328606Y-101874000D02*
X195328606Y-104460000D01*
X195328606Y-106540000D02*
X195328606Y-109126000D01*
X195368606Y-101888000D02*
X195368606Y-104460000D01*
X195368606Y-106540000D02*
X195368606Y-109112000D01*
X195408606Y-101902000D02*
X195408606Y-104460000D01*
X195408606Y-106540000D02*
X195408606Y-109098000D01*
X195448606Y-101917000D02*
X195448606Y-104460000D01*
X195448606Y-106540000D02*
X195448606Y-109083000D01*
X195488606Y-101932000D02*
X195488606Y-104460000D01*
X195488606Y-106540000D02*
X195488606Y-109068000D01*
X195528606Y-101948000D02*
X195528606Y-104460000D01*
X195528606Y-106540000D02*
X195528606Y-109052000D01*
X195568606Y-101964000D02*
X195568606Y-104460000D01*
X195568606Y-106540000D02*
X195568606Y-109036000D01*
X195608606Y-101981000D02*
X195608606Y-104460000D01*
X195608606Y-106540000D02*
X195608606Y-109019000D01*
X195648606Y-101998000D02*
X195648606Y-104460000D01*
X195648606Y-106540000D02*
X195648606Y-109002000D01*
X195688606Y-102016000D02*
X195688606Y-104460000D01*
X195688606Y-106540000D02*
X195688606Y-108984000D01*
X195728606Y-102035000D02*
X195728606Y-104460000D01*
X195728606Y-106540000D02*
X195728606Y-108965000D01*
X195768606Y-102054000D02*
X195768606Y-104460000D01*
X195768606Y-106540000D02*
X195768606Y-108946000D01*
X195808606Y-102073000D02*
X195808606Y-104460000D01*
X195808606Y-106540000D02*
X195808606Y-108927000D01*
X195848606Y-102093000D02*
X195848606Y-104460000D01*
X195848606Y-106540000D02*
X195848606Y-108907000D01*
X195888606Y-102114000D02*
X195888606Y-104460000D01*
X195888606Y-106540000D02*
X195888606Y-108886000D01*
X195928606Y-102135000D02*
X195928606Y-104460000D01*
X195928606Y-106540000D02*
X195928606Y-108865000D01*
X195968606Y-102157000D02*
X195968606Y-104460000D01*
X195968606Y-106540000D02*
X195968606Y-108843000D01*
X196008606Y-102180000D02*
X196008606Y-104460000D01*
X196008606Y-106540000D02*
X196008606Y-108820000D01*
X196048606Y-102203000D02*
X196048606Y-104460000D01*
X196048606Y-106540000D02*
X196048606Y-108797000D01*
X196088606Y-102227000D02*
X196088606Y-104460000D01*
X196088606Y-106540000D02*
X196088606Y-108773000D01*
X196128606Y-102251000D02*
X196128606Y-104460000D01*
X196128606Y-106540000D02*
X196128606Y-108749000D01*
X196168606Y-102276000D02*
X196168606Y-104460000D01*
X196168606Y-106540000D02*
X196168606Y-108724000D01*
X196208606Y-102302000D02*
X196208606Y-104460000D01*
X196208606Y-106540000D02*
X196208606Y-108698000D01*
X196248606Y-102329000D02*
X196248606Y-104460000D01*
X196248606Y-106540000D02*
X196248606Y-108671000D01*
X196288606Y-102356000D02*
X196288606Y-104460000D01*
X196288606Y-106540000D02*
X196288606Y-108644000D01*
X196328606Y-102384000D02*
X196328606Y-104460000D01*
X196328606Y-106540000D02*
X196328606Y-108616000D01*
X196368606Y-102413000D02*
X196368606Y-104460000D01*
X196368606Y-106540000D02*
X196368606Y-108587000D01*
X196408606Y-102443000D02*
X196408606Y-108557000D01*
X196448606Y-102473000D02*
X196448606Y-108527000D01*
X196488606Y-102504000D02*
X196488606Y-108496000D01*
X196528606Y-102536000D02*
X196528606Y-108464000D01*
X196568606Y-102569000D02*
X196568606Y-108431000D01*
X196608606Y-102603000D02*
X196608606Y-108397000D01*
X196648606Y-102638000D02*
X196648606Y-108362000D01*
X196688606Y-102673000D02*
X196688606Y-108327000D01*
X196728606Y-102710000D02*
X196728606Y-108290000D01*
X196768606Y-102748000D02*
X196768606Y-108252000D01*
X196808606Y-102787000D02*
X196808606Y-108213000D01*
X196848606Y-102827000D02*
X196848606Y-108173000D01*
X196888606Y-102869000D02*
X196888606Y-108131000D01*
X196928606Y-102911000D02*
X196928606Y-108089000D01*
X196968606Y-102955000D02*
X196968606Y-108045000D01*
X197008606Y-103000000D02*
X197008606Y-108000000D01*
X197048606Y-103047000D02*
X197048606Y-107953000D01*
X197088606Y-103095000D02*
X197088606Y-107905000D01*
X197128606Y-103145000D02*
X197128606Y-107855000D01*
X197168606Y-103197000D02*
X197168606Y-107803000D01*
X197208606Y-103250000D02*
X197208606Y-107750000D01*
X197248606Y-103306000D02*
X197248606Y-107694000D01*
X197288606Y-103364000D02*
X197288606Y-107636000D01*
X197328606Y-103424000D02*
X197328606Y-107576000D01*
X197368606Y-103486000D02*
X197368606Y-107514000D01*
X197408606Y-103551000D02*
X197408606Y-107449000D01*
X197448606Y-103620000D02*
X197448606Y-107380000D01*
X197488606Y-103692000D02*
X197488606Y-107308000D01*
X197528606Y-103767000D02*
X197528606Y-107233000D01*
X197568606Y-103847000D02*
X197568606Y-107153000D01*
X197608606Y-103932000D02*
X197608606Y-107068000D01*
X197648606Y-104022000D02*
X197648606Y-106978000D01*
X197688606Y-104120000D02*
X197688606Y-106880000D01*
X197728606Y-104226000D02*
X197728606Y-106774000D01*
X197768606Y-104342000D02*
X197768606Y-106658000D01*
X197808606Y-104473000D02*
X197808606Y-106527000D01*
X197848606Y-104624000D02*
X197848606Y-106376000D01*
X197888606Y-104807000D02*
X197888606Y-106193000D01*
X197928606Y-105059000D02*
X197928606Y-105941000D01*
X197958606Y-105500000D02*
G75*
G02*
X190218606Y-105500000I-3870000J0D01*
G01*
X190218606Y-105500000D02*
G75*
G02*
X197958606Y-105500000I3870000J0D01*
G01*
%TD*%
M02*
