%TF.GenerationSoftware,KiCad,Pcbnew,10.0.1*%
%TF.CreationDate,2026-04-18T14:26:21-07:00*%
%TF.ProjectId,miffy-blinky,6d696666-792d-4626-9c69-6e6b792e6b69,rev?*%
%TF.SameCoordinates,Original*%
%TF.FileFunction,Copper,L2,Bot*%
%TF.FilePolarity,Positive*%
%FSLAX46Y46*%
G04 Gerber Fmt 4.6, Leading zero omitted, Abs format (unit mm)*
G04 Created by KiCad (PCBNEW 10.0.1) date 2026-04-18 14:26:21*
%MOMM*%
%LPD*%
G01*
G04 APERTURE LIST*
G04 Aperture macros list*
%AMRoundRect*
0 Rectangle with rounded corners*
0 $1 Rounding radius*
0 $2 $3 $4 $5 $6 $7 $8 $9 X,Y pos of 4 corners*
0 Add a 4 corners polygon primitive as box body*
4,1,4,$2,$3,$4,$5,$6,$7,$8,$9,$2,$3,0*
0 Add four circle primitives for the rounded corners*
1,1,$1+$1,$2,$3*
1,1,$1+$1,$4,$5*
1,1,$1+$1,$6,$7*
1,1,$1+$1,$8,$9*
0 Add four rect primitives between the rounded corners*
20,1,$1+$1,$2,$3,$4,$5,0*
20,1,$1+$1,$4,$5,$6,$7,0*
20,1,$1+$1,$6,$7,$8,$9,0*
20,1,$1+$1,$8,$9,$2,$3,0*%
G04 Aperture macros list end*
%TA.AperFunction,ComponentPad*%
%ADD10C,1.800000*%
%TD*%
%TA.AperFunction,ComponentPad*%
%ADD11R,1.800000X1.800000*%
%TD*%
%TA.AperFunction,ComponentPad*%
%ADD12C,1.600000*%
%TD*%
%TA.AperFunction,ComponentPad*%
%ADD13RoundRect,0.250000X-0.550000X-0.550000X0.550000X-0.550000X0.550000X0.550000X-0.550000X0.550000X0*%
%TD*%
%TA.AperFunction,ComponentPad*%
%ADD14C,1.295400*%
%TD*%
%TA.AperFunction,ComponentPad*%
%ADD15R,1.295400X1.295400*%
%TD*%
%TA.AperFunction,ComponentPad*%
%ADD16R,1.700000X1.700000*%
%TD*%
%TA.AperFunction,ComponentPad*%
%ADD17C,1.700000*%
%TD*%
%TA.AperFunction,ComponentPad*%
%ADD18RoundRect,0.250000X-0.550000X0.550000X-0.550000X-0.550000X0.550000X-0.550000X0.550000X0.550000X0*%
%TD*%
%TA.AperFunction,ComponentPad*%
%ADD19RoundRect,0.412500X-0.412500X-0.412500X0.412500X-0.412500X0.412500X0.412500X-0.412500X0.412500X0*%
%TD*%
%TA.AperFunction,ComponentPad*%
%ADD20C,1.650000*%
%TD*%
%TA.AperFunction,Conductor*%
%ADD21C,0.200000*%
%TD*%
G04 APERTURE END LIST*
D10*
%TO.P,D1,2,A_2*%
%TO.N,Net-(D1-A)*%
X194770000Y-63500000D03*
D11*
%TO.P,D1,1,K_1*%
%TO.N,Net-(D1-K)*%
X192230000Y-63500000D03*
%TD*%
D12*
%TO.P,C2,2*%
%TO.N,GND*%
X197044888Y-116500000D03*
D13*
%TO.P,C2,1*%
%TO.N,/TR*%
X195044888Y-116500000D03*
%TD*%
D14*
%TO.P,U2,16,VDD_16*%
%TO.N,+5V*%
X214890000Y-97310000D03*
%TO.P,U2,15,Reset_15*%
%TO.N,GND*%
X212350000Y-97310000D03*
%TO.P,U2,14,CLK_14*%
%TO.N,/OUT*%
X209810000Y-97310000D03*
%TO.P,U2,13,CKEN_13*%
%TO.N,GND*%
X207270000Y-97310000D03*
%TO.P,U2,12,Cout_12*%
%TO.N,unconnected-(U2-Cout-Pad12)*%
X204730000Y-97310000D03*
%TO.P,U2,11,Q9_11*%
%TO.N,Net-(D1-A)*%
X202190000Y-97310000D03*
%TO.P,U2,10,Q4_10*%
%TO.N,Net-(D6-A)*%
X199650000Y-97310000D03*
%TO.P,U2,9,Q8_9*%
%TO.N,Net-(D2-A)*%
X197110000Y-97310000D03*
%TO.P,U2,8,VSS_8*%
%TO.N,GND*%
X197110000Y-89690000D03*
%TO.P,U2,7,Q3_7*%
%TO.N,Net-(D7-A)*%
X199650000Y-89690000D03*
%TO.P,U2,6,Q7_6*%
%TO.N,Net-(D3-A)*%
X202190000Y-89690000D03*
%TO.P,U2,5,Q6_5*%
%TO.N,Net-(D4-A)*%
X204730000Y-89690000D03*
%TO.P,U2,4,Q2_4*%
%TO.N,Net-(D8-A)*%
X207270000Y-89690000D03*
%TO.P,U2,3,Q0_3*%
%TO.N,Net-(D10-A)*%
X209810000Y-89690000D03*
%TO.P,U2,2,Q1_2*%
%TO.N,Net-(D9-A)*%
X212350000Y-89690000D03*
D15*
%TO.P,U2,1,Q5_1*%
%TO.N,Net-(D5-A)*%
X214890000Y-89690000D03*
%TD*%
D12*
%TO.P,R2,2*%
%TO.N,GND*%
X222310000Y-107500000D03*
%TO.P,R2,1*%
%TO.N,Net-(D1-K)*%
X214690000Y-107500000D03*
%TD*%
D16*
%TO.P,J1,1,Pin_1_1*%
%TO.N,+5V*%
X215000000Y-114000000D03*
D17*
%TO.P,J1,2,Pin_2_2*%
%TO.N,GND*%
X215000000Y-116540000D03*
%TD*%
D10*
%TO.P,D5,2,A_2*%
%TO.N,Net-(D5-A)*%
X196500000Y-131500000D03*
D11*
%TO.P,D5,1,K_1*%
%TO.N,Net-(D1-K)*%
X193960000Y-131500000D03*
%TD*%
D10*
%TO.P,D7,2,A_2*%
%TO.N,Net-(D7-A)*%
X231270000Y-115500000D03*
D11*
%TO.P,D7,1,K_1*%
%TO.N,Net-(D1-K)*%
X228730000Y-115500000D03*
%TD*%
%TO.P,D6,1,K_1*%
%TO.N,Net-(D1-K)*%
X219230000Y-129500000D03*
D10*
%TO.P,D6,2,A_2*%
%TO.N,Net-(D6-A)*%
X221770000Y-129500000D03*
%TD*%
%TO.P,D9,2,A_2*%
%TO.N,Net-(D9-A)*%
X220000000Y-79000000D03*
D11*
%TO.P,D9,1,K_1*%
%TO.N,Net-(D1-K)*%
X217460000Y-79000000D03*
%TD*%
D10*
%TO.P,D10,2,A_2*%
%TO.N,Net-(D10-A)*%
X220000000Y-64000000D03*
D11*
%TO.P,D10,1,K_1*%
%TO.N,Net-(D1-K)*%
X217460000Y-64000000D03*
%TD*%
D18*
%TO.P,U1,1,GND_1*%
%TO.N,GND*%
X209810000Y-100695000D03*
D12*
%TO.P,U1,2,TRIG_2*%
%TO.N,/TR*%
X207270000Y-100695000D03*
%TO.P,U1,3,OUT_3*%
%TO.N,/OUT*%
X204730000Y-100695000D03*
%TO.P,U1,4,~{RST}_4*%
%TO.N,+5V*%
X202190000Y-100695000D03*
%TO.P,U1,5,CONT_5*%
%TO.N,Net-(U1-CONT)*%
X202190000Y-108315000D03*
%TO.P,U1,6,THRES_6*%
%TO.N,/TR*%
X204730000Y-108315000D03*
%TO.P,U1,7,DISCH_7*%
%TO.N,Net-(U1-DISCH)*%
X207270000Y-108315000D03*
%TO.P,U1,8,VCC_8*%
%TO.N,+5V*%
X209810000Y-108315000D03*
%TD*%
D19*
%TO.P,RV1,1,1_1*%
%TO.N,Net-(U1-DISCH)*%
X203420000Y-117000000D03*
D20*
%TO.P,RV1,2,2_2*%
X205960000Y-117000000D03*
%TO.P,RV1,3,3_3*%
%TO.N,/TR*%
X208500000Y-117000000D03*
%TD*%
D12*
%TO.P,R1,1*%
%TO.N,Net-(U1-DISCH)*%
X214690000Y-103450000D03*
%TO.P,R1,2*%
%TO.N,+5V*%
X222310000Y-103450000D03*
%TD*%
D11*
%TO.P,D8,1,K_1*%
%TO.N,Net-(D1-K)*%
X221230000Y-97000000D03*
D10*
%TO.P,D8,2,A_2*%
%TO.N,Net-(D8-A)*%
X223770000Y-97000000D03*
%TD*%
D11*
%TO.P,D4,1,K_1*%
%TO.N,Net-(D1-K)*%
X180960000Y-116000000D03*
D10*
%TO.P,D4,2,A_2*%
%TO.N,Net-(D4-A)*%
X183500000Y-116000000D03*
%TD*%
D11*
%TO.P,D3,1,K_1*%
%TO.N,Net-(D1-K)*%
X186960000Y-98000000D03*
D10*
%TO.P,D3,2,A_2*%
%TO.N,Net-(D3-A)*%
X189500000Y-98000000D03*
%TD*%
D11*
%TO.P,D2,1,K_1*%
%TO.N,Net-(D1-K)*%
X191230000Y-79500000D03*
D10*
%TO.P,D2,2,A_2*%
%TO.N,Net-(D2-A)*%
X193770000Y-79500000D03*
%TD*%
D13*
%TO.P,C1,1*%
%TO.N,GND*%
X192838606Y-105500000D03*
D12*
%TO.P,C1,2*%
%TO.N,Net-(U1-CONT)*%
X195338606Y-105500000D03*
%TD*%
%TO.N,GND*%
D21*
X215000000Y-116540000D02*
X216960000Y-116540000D01*
X216960000Y-116540000D02*
X222310000Y-111190000D01*
X222310000Y-111190000D02*
X222310000Y-107500000D01*
%TO.N,+5V*%
X209810000Y-108315000D02*
X211815000Y-108315000D01*
X211815000Y-108315000D02*
X215000000Y-111500000D01*
X215000000Y-111500000D02*
X215000000Y-114000000D01*
%TO.N,GND*%
X225000000Y-101500000D02*
X225000000Y-107500000D01*
X224195000Y-100695000D02*
X225000000Y-101500000D01*
X209810000Y-100695000D02*
X224195000Y-100695000D01*
X225000000Y-107500000D02*
X222310000Y-107500000D01*
%TO.N,Net-(D6-A)*%
X191500000Y-134000000D02*
X221500000Y-134000000D01*
X199650000Y-97310000D02*
X199650000Y-99350000D01*
X188000000Y-114000000D02*
X185500000Y-116500000D01*
X199650000Y-99350000D02*
X199500000Y-99500000D01*
X192000000Y-99500000D02*
X188000000Y-103500000D01*
X188000000Y-103500000D02*
X188000000Y-114000000D01*
X185500000Y-116500000D02*
X185500000Y-130000000D01*
X191000000Y-134500000D02*
X191500000Y-134000000D01*
X185500000Y-130000000D02*
X190000000Y-134500000D01*
X199500000Y-99500000D02*
X192000000Y-99500000D01*
X190000000Y-134500000D02*
X191000000Y-134500000D01*
X221500000Y-134000000D02*
X221770000Y-133730000D01*
X221770000Y-133730000D02*
X221770000Y-129500000D01*
%TO.N,Net-(U1-DISCH)*%
X205960000Y-117000000D02*
X207270000Y-115690000D01*
X207270000Y-115690000D02*
X207270000Y-108315000D01*
%TO.N,Net-(D5-A)*%
X212000000Y-92000000D02*
X214500000Y-92000000D01*
X208500000Y-98500000D02*
X208500000Y-95500000D01*
X199500000Y-128500000D02*
X199500000Y-101000000D01*
X199500000Y-101000000D02*
X201500000Y-99000000D01*
X214890000Y-91610000D02*
X214890000Y-89690000D01*
X208000000Y-99000000D02*
X208500000Y-98500000D01*
X196500000Y-131500000D02*
X199500000Y-128500000D01*
X201500000Y-99000000D02*
X208000000Y-99000000D01*
X208500000Y-95500000D02*
X212000000Y-92000000D01*
X214500000Y-92000000D02*
X214890000Y-91610000D01*
%TO.N,GND*%
X209810000Y-100695000D02*
X209810000Y-99850000D01*
X209810000Y-99850000D02*
X212350000Y-97310000D01*
X201420000Y-94000000D02*
X205500000Y-94000000D01*
X197110000Y-89690000D02*
X201420000Y-94000000D01*
X205500000Y-94000000D02*
X207270000Y-95770000D01*
X207270000Y-95770000D02*
X207270000Y-97310000D01*
%TO.N,Net-(D1-A)*%
X197500000Y-64000000D02*
X197500000Y-71000000D01*
X194770000Y-63500000D02*
X197000000Y-63500000D01*
X195000000Y-93000000D02*
X197880000Y-93000000D01*
X197000000Y-63500000D02*
X197500000Y-64000000D01*
X195000000Y-84500000D02*
X195000000Y-93000000D01*
X198000000Y-71500000D02*
X198000000Y-81500000D01*
X197500000Y-71000000D02*
X198000000Y-71500000D01*
X198000000Y-81500000D02*
X195000000Y-84500000D01*
X197880000Y-93000000D02*
X202190000Y-97310000D01*
%TO.N,Net-(D2-A)*%
X193770000Y-79500000D02*
X193770000Y-93970000D01*
X193770000Y-93970000D02*
X197110000Y-97310000D01*
%TO.N,Net-(D1-K)*%
X186960000Y-98000000D02*
X185000000Y-98000000D01*
X185000000Y-98000000D02*
X180960000Y-102040000D01*
X180960000Y-102040000D02*
X180960000Y-116000000D01*
X191230000Y-79500000D02*
X191500000Y-79500000D01*
X191500000Y-79500000D02*
X186960000Y-84040000D01*
X186960000Y-84040000D02*
X186960000Y-98000000D01*
%TO.N,Net-(D7-A)*%
X210000000Y-83500000D02*
X208500000Y-85000000D01*
X231270000Y-115500000D02*
X231000000Y-115500000D01*
X215500000Y-83500000D02*
X210000000Y-83500000D01*
X208500000Y-86500000D02*
X202840000Y-86500000D01*
X231000000Y-115500000D02*
X231000000Y-104000000D01*
X208500000Y-85000000D02*
X208500000Y-86500000D01*
X231000000Y-104000000D02*
X228000000Y-101000000D01*
X228000000Y-101000000D02*
X228000000Y-96000000D01*
X228000000Y-96000000D02*
X215500000Y-83500000D01*
X202840000Y-86500000D02*
X199650000Y-89690000D01*
%TO.N,+5V*%
X209810000Y-108315000D02*
X202190000Y-100695000D01*
%TO.N,Net-(D8-A)*%
X226000000Y-99500000D02*
X225500000Y-100000000D01*
X226000000Y-97000000D02*
X226000000Y-99500000D01*
X225500000Y-100000000D02*
X220000000Y-100000000D01*
X220000000Y-100000000D02*
X220000000Y-91000000D01*
X220000000Y-91000000D02*
X214500000Y-85500000D01*
X223770000Y-97000000D02*
X226000000Y-97000000D01*
X214500000Y-85500000D02*
X211460000Y-85500000D01*
X211460000Y-85500000D02*
X207270000Y-89690000D01*
%TD*%
M02*
