%TF.GenerationSoftware,KiCad,Pcbnew,10.0.1*%
%TF.CreationDate,2026-04-18T13:55:31-07:00*%
%TF.ProjectId,miffy-blinky,6d696666-792d-4626-9c69-6e6b792e6b69,rev?*%
%TF.SameCoordinates,Original*%
%TF.FileFunction,Copper,L1,Top*%
%TF.FilePolarity,Positive*%
%FSLAX46Y46*%
G04 Gerber Fmt 4.6, Leading zero omitted, Abs format (unit mm)*
G04 Created by KiCad (PCBNEW 10.0.1) date 2026-04-18 13:55:31*
%MOMM*%
%LPD*%
G01*
G04 APERTURE LIST*
G04 Aperture macros list*
%AMRoundRect*
0 Rectangle with rounded corners*
0 $1 Rounding radius*
0 $2 $3 $4 $5 $6 $7 $8 $9 X,Y pos of 4 corners*
0 Add a 4 corners polygon primitive as box body*
4,1,4,$2,$3,$4,$5,$6,$7,$8,$9,$2,$3,0*
0 Add four circle primitives for the rounded corners*
1,1,$1+$1,$2,$3*
1,1,$1+$1,$4,$5*
1,1,$1+$1,$6,$7*
1,1,$1+$1,$8,$9*
0 Add four rect primitives between the rounded corners*
20,1,$1+$1,$2,$3,$4,$5,0*
20,1,$1+$1,$4,$5,$6,$7,0*
20,1,$1+$1,$6,$7,$8,$9,0*
20,1,$1+$1,$8,$9,$2,$3,0*%
G04 Aperture macros list end*
%TA.AperFunction,ComponentPad*%
%ADD10C,1.600000*%
%TD*%
%TA.AperFunction,ComponentPad*%
%ADD11RoundRect,0.250000X-0.550000X-0.550000X0.550000X-0.550000X0.550000X0.550000X-0.550000X0.550000X0*%
%TD*%
%TA.AperFunction,ComponentPad*%
%ADD12C,1.295400*%
%TD*%
%TA.AperFunction,ComponentPad*%
%ADD13R,1.295400X1.295400*%
%TD*%
%TA.AperFunction,ComponentPad*%
%ADD14R,1.700000X1.700000*%
%TD*%
%TA.AperFunction,ComponentPad*%
%ADD15C,1.700000*%
%TD*%
%TA.AperFunction,ComponentPad*%
%ADD16C,1.800000*%
%TD*%
%TA.AperFunction,ComponentPad*%
%ADD17R,1.800000X1.800000*%
%TD*%
%TA.AperFunction,ComponentPad*%
%ADD18RoundRect,0.250000X-0.550000X0.550000X-0.550000X-0.550000X0.550000X-0.550000X0.550000X0.550000X0*%
%TD*%
%TA.AperFunction,ComponentPad*%
%ADD19RoundRect,0.412500X-0.412500X-0.412500X0.412500X-0.412500X0.412500X0.412500X-0.412500X0.412500X0*%
%TD*%
%TA.AperFunction,ComponentPad*%
%ADD20C,1.650000*%
%TD*%
%TA.AperFunction,Conductor*%
%ADD21C,0.200000*%
%TD*%
G04 APERTURE END LIST*
D10*
%TO.P,C2,2*%
%TO.N,GND*%
X197044888Y-116500000D03*
D11*
%TO.P,C2,1*%
%TO.N,/TR*%
X195044888Y-116500000D03*
%TD*%
D12*
%TO.P,U2,16,VDD_16*%
%TO.N,+5V*%
X214890000Y-97310000D03*
%TO.P,U2,15,Reset_15*%
%TO.N,GND*%
X212350000Y-97310000D03*
%TO.P,U2,14,CLK_14*%
%TO.N,/OUT*%
X209810000Y-97310000D03*
%TO.P,U2,13,CKEN_13*%
%TO.N,GND*%
X207270000Y-97310000D03*
%TO.P,U2,12,Cout_12*%
%TO.N,unconnected-(U2-Cout-Pad12)*%
X204730000Y-97310000D03*
%TO.P,U2,11,Q9_11*%
%TO.N,Net-(D1-A)*%
X202190000Y-97310000D03*
%TO.P,U2,10,Q4_10*%
%TO.N,Net-(D6-A)*%
X199650000Y-97310000D03*
%TO.P,U2,9,Q8_9*%
%TO.N,Net-(D2-A)*%
X197110000Y-97310000D03*
%TO.P,U2,8,VSS_8*%
%TO.N,GND*%
X197110000Y-89690000D03*
%TO.P,U2,7,Q3_7*%
%TO.N,Net-(D7-A)*%
X199650000Y-89690000D03*
%TO.P,U2,6,Q7_6*%
%TO.N,Net-(D3-A)*%
X202190000Y-89690000D03*
%TO.P,U2,5,Q6_5*%
%TO.N,Net-(D4-A)*%
X204730000Y-89690000D03*
%TO.P,U2,4,Q2_4*%
%TO.N,Net-(D8-A)*%
X207270000Y-89690000D03*
%TO.P,U2,3,Q0_3*%
%TO.N,Net-(D10-A)*%
X209810000Y-89690000D03*
%TO.P,U2,2,Q1_2*%
%TO.N,Net-(D9-A)*%
X212350000Y-89690000D03*
D13*
%TO.P,U2,1,Q5_1*%
%TO.N,Net-(D5-A)*%
X214890000Y-89690000D03*
%TD*%
D10*
%TO.P,R2,2*%
%TO.N,GND*%
X222310000Y-107500000D03*
%TO.P,R2,1*%
%TO.N,Net-(D1-K)*%
X214690000Y-107500000D03*
%TD*%
D14*
%TO.P,J1,1,Pin_1_1*%
%TO.N,+5V*%
X215000000Y-114000000D03*
D15*
%TO.P,J1,2,Pin_2_2*%
%TO.N,GND*%
X215000000Y-116540000D03*
%TD*%
D16*
%TO.P,D5,2,A_2*%
%TO.N,Net-(D5-A)*%
X196500000Y-131500000D03*
D17*
%TO.P,D5,1,K_1*%
%TO.N,Net-(D1-K)*%
X193960000Y-131500000D03*
%TD*%
D16*
%TO.P,D7,2,A_2*%
%TO.N,Net-(D7-A)*%
X231270000Y-115500000D03*
D17*
%TO.P,D7,1,K_1*%
%TO.N,Net-(D1-K)*%
X228730000Y-115500000D03*
%TD*%
%TO.P,D6,1,K_1*%
%TO.N,Net-(D1-K)*%
X219230000Y-129500000D03*
D16*
%TO.P,D6,2,A_2*%
%TO.N,Net-(D6-A)*%
X221770000Y-129500000D03*
%TD*%
%TO.P,D9,2,A_2*%
%TO.N,Net-(D9-A)*%
X220000000Y-79000000D03*
D17*
%TO.P,D9,1,K_1*%
%TO.N,Net-(D1-K)*%
X217460000Y-79000000D03*
%TD*%
D16*
%TO.P,D10,2,A_2*%
%TO.N,Net-(D10-A)*%
X220000000Y-64000000D03*
D17*
%TO.P,D10,1,K_1*%
%TO.N,Net-(D1-K)*%
X217460000Y-64000000D03*
%TD*%
D18*
%TO.P,U1,1,GND_1*%
%TO.N,GND*%
X209810000Y-100695000D03*
D10*
%TO.P,U1,2,TRIG_2*%
%TO.N,/TR*%
X207270000Y-100695000D03*
%TO.P,U1,3,OUT_3*%
%TO.N,/OUT*%
X204730000Y-100695000D03*
%TO.P,U1,4,~{RST}_4*%
%TO.N,+5V*%
X202190000Y-100695000D03*
%TO.P,U1,5,CONT_5*%
%TO.N,Net-(U1-CONT)*%
X202190000Y-108315000D03*
%TO.P,U1,6,THRES_6*%
%TO.N,/TR*%
X204730000Y-108315000D03*
%TO.P,U1,7,DISCH_7*%
%TO.N,Net-(U1-DISCH)*%
X207270000Y-108315000D03*
%TO.P,U1,8,VCC_8*%
%TO.N,+5V*%
X209810000Y-108315000D03*
%TD*%
D19*
%TO.P,RV1,1,1_1*%
%TO.N,Net-(U1-DISCH)*%
X203420000Y-117000000D03*
D20*
%TO.P,RV1,2,2_2*%
X205960000Y-117000000D03*
%TO.P,RV1,3,3_3*%
%TO.N,/TR*%
X208500000Y-117000000D03*
%TD*%
D10*
%TO.P,R1,1*%
%TO.N,Net-(U1-DISCH)*%
X214690000Y-103450000D03*
%TO.P,R1,2*%
%TO.N,+5V*%
X222310000Y-103450000D03*
%TD*%
D17*
%TO.P,D8,1,K_1*%
%TO.N,Net-(D1-K)*%
X221230000Y-97000000D03*
D16*
%TO.P,D8,2,A_2*%
%TO.N,Net-(D8-A)*%
X223770000Y-97000000D03*
%TD*%
D17*
%TO.P,D4,1,K_1*%
%TO.N,Net-(D1-K)*%
X180960000Y-116000000D03*
D16*
%TO.P,D4,2,A_2*%
%TO.N,Net-(D4-A)*%
X183500000Y-116000000D03*
%TD*%
D17*
%TO.P,D3,1,K_1*%
%TO.N,Net-(D1-K)*%
X186960000Y-98000000D03*
D16*
%TO.P,D3,2,A_2*%
%TO.N,Net-(D3-A)*%
X189500000Y-98000000D03*
%TD*%
D17*
%TO.P,D2,1,K_1*%
%TO.N,Net-(D1-K)*%
X191230000Y-79500000D03*
D16*
%TO.P,D2,2,A_2*%
%TO.N,Net-(D2-A)*%
X193770000Y-79500000D03*
%TD*%
D17*
%TO.P,D1,1,K_1*%
%TO.N,Net-(D1-K)*%
X192230000Y-63500000D03*
D16*
%TO.P,D1,2,A_2*%
%TO.N,Net-(D1-A)*%
X194770000Y-63500000D03*
%TD*%
D11*
%TO.P,C1,1*%
%TO.N,GND*%
X192838606Y-105500000D03*
D10*
%TO.P,C1,2*%
%TO.N,Net-(U1-CONT)*%
X195338606Y-105500000D03*
%TD*%
%TO.N,Net-(D1-K)*%
D21*
X192230000Y-63500000D02*
X192230000Y-61770000D01*
X192230000Y-61770000D02*
X196000000Y-58000000D01*
X196000000Y-58000000D02*
X197000000Y-58000000D01*
X197000000Y-58000000D02*
X207750000Y-68750000D01*
X207750000Y-68750000D02*
X215000000Y-61500000D01*
X215000000Y-61500000D02*
X216500000Y-63000000D01*
X216500000Y-63000000D02*
X216460000Y-63000000D01*
X216460000Y-63000000D02*
X217460000Y-64000000D01*
%TO.N,/OUT*%
X205500000Y-99000000D02*
X209000000Y-99000000D01*
X204730000Y-100695000D02*
X204730000Y-99770000D01*
X204730000Y-99770000D02*
X205500000Y-99000000D01*
X209000000Y-99000000D02*
X209000000Y-98120000D01*
X209000000Y-98120000D02*
X209810000Y-97310000D01*
%TO.N,GND*%
X197044888Y-116500000D02*
X197044888Y-115044888D01*
X192838606Y-110838606D02*
X192838606Y-105500000D01*
X197044888Y-115044888D02*
X192838606Y-110838606D01*
%TO.N,/TR*%
X195000000Y-121000000D02*
X200000000Y-121000000D01*
X195044888Y-116500000D02*
X195044888Y-120955112D01*
X195044888Y-120955112D02*
X195000000Y-121000000D01*
X200000000Y-113045000D02*
X204730000Y-108315000D01*
X200000000Y-121000000D02*
X200000000Y-113045000D01*
%TO.N,GND*%
X211000000Y-98500000D02*
X211000000Y-96000000D01*
X209810000Y-100695000D02*
X209810000Y-99690000D01*
X211000000Y-96000000D02*
X208580000Y-96000000D01*
X209810000Y-99690000D02*
X211000000Y-98500000D01*
X208580000Y-96000000D02*
X207270000Y-97310000D01*
X207270000Y-97310000D02*
X207310000Y-97310000D01*
%TO.N,Net-(U1-DISCH)*%
X203420000Y-117000000D02*
X205960000Y-117000000D01*
%TO.N,+5V*%
X213000000Y-101500000D02*
X213000000Y-99000000D01*
X209810000Y-104690000D02*
X213000000Y-101500000D01*
X213000000Y-99000000D02*
X213200000Y-99000000D01*
X213200000Y-99000000D02*
X214890000Y-97310000D01*
X209810000Y-108315000D02*
X209810000Y-104690000D01*
X222310000Y-103450000D02*
X222310000Y-101810000D01*
X222310000Y-101810000D02*
X222000000Y-101500000D01*
X222000000Y-101500000D02*
X216000000Y-101500000D01*
X216000000Y-101500000D02*
X215500000Y-101000000D01*
X215500000Y-101000000D02*
X215500000Y-97920000D01*
X215500000Y-97920000D02*
X214890000Y-97310000D01*
%TO.N,Net-(U1-CONT)*%
X197838606Y-108000000D02*
X198500000Y-108000000D01*
X195338606Y-105500000D02*
X197838606Y-108000000D01*
X198500000Y-108000000D02*
X198815000Y-108315000D01*
X198815000Y-108315000D02*
X202190000Y-108315000D01*
%TO.N,GND*%
X197110000Y-89690000D02*
X197110000Y-87610000D01*
X190500000Y-94500000D02*
X192838606Y-96838606D01*
X197110000Y-87610000D02*
X197000000Y-87500000D01*
X197000000Y-87500000D02*
X190500000Y-87500000D01*
X190500000Y-87500000D02*
X190500000Y-94500000D01*
X192838606Y-96838606D02*
X192838606Y-105500000D01*
%TO.N,Net-(D3-A)*%
X202190000Y-87690000D02*
X201000000Y-86500000D01*
X189500000Y-87000000D02*
X189500000Y-98000000D01*
X202190000Y-89690000D02*
X202190000Y-87690000D01*
X190000000Y-86500000D02*
X189500000Y-87000000D01*
X201000000Y-86500000D02*
X190000000Y-86500000D01*
%TO.N,Net-(D4-A)*%
X204730000Y-89690000D02*
X204730000Y-86730000D01*
X186000000Y-89500000D02*
X186000000Y-92000000D01*
X182000000Y-109000000D02*
X183500000Y-110500000D01*
X204730000Y-86730000D02*
X203500000Y-85500000D01*
X203500000Y-85500000D02*
X190000000Y-85500000D01*
X190000000Y-85500000D02*
X186000000Y-89500000D01*
X186000000Y-92000000D02*
X182000000Y-96000000D01*
X182000000Y-96000000D02*
X182000000Y-109000000D01*
X183500000Y-110500000D02*
X183500000Y-116000000D01*
%TO.N,Net-(U1-DISCH)*%
X213000000Y-104000000D02*
X213000000Y-110000000D01*
X213000000Y-110000000D02*
X212500000Y-110500000D01*
X214690000Y-103450000D02*
X213550000Y-103450000D01*
X213550000Y-103450000D02*
X213000000Y-104000000D01*
X212500000Y-110500000D02*
X209455000Y-110500000D01*
X209455000Y-110500000D02*
X207270000Y-108315000D01*
%TO.N,/TR*%
X208500000Y-117000000D02*
X208500000Y-112085000D01*
X208500000Y-112085000D02*
X204730000Y-108315000D01*
X207270000Y-100695000D02*
X207270000Y-105775000D01*
X207270000Y-105775000D02*
X204730000Y-108315000D01*
%TO.N,Net-(D10-A)*%
X215000000Y-73500000D02*
X213000000Y-75500000D01*
X217500000Y-73500000D02*
X215000000Y-73500000D01*
X220000000Y-64000000D02*
X223500000Y-64000000D01*
X223500000Y-64000000D02*
X223500000Y-67500000D01*
X223500000Y-67500000D02*
X217500000Y-73500000D01*
X213000000Y-75500000D02*
X213000000Y-86500000D01*
X213000000Y-86500000D02*
X209810000Y-89690000D01*
%TO.N,Net-(D9-A)*%
X222500000Y-79500000D02*
X222500000Y-85500000D01*
X220000000Y-79000000D02*
X222000000Y-79000000D01*
X216540000Y-85500000D02*
X212350000Y-89690000D01*
X222000000Y-79000000D02*
X222500000Y-79500000D01*
X222500000Y-85500000D02*
X216540000Y-85500000D01*
%TO.N,Net-(D1-K)*%
X217460000Y-79000000D02*
X217460000Y-78540000D01*
X217460000Y-78540000D02*
X219500000Y-76500000D01*
X219500000Y-76500000D02*
X223500000Y-76500000D01*
X223500000Y-76500000D02*
X224000000Y-77000000D01*
X224000000Y-77000000D02*
X224000000Y-86500000D01*
X224000000Y-86500000D02*
X220000000Y-90500000D01*
X220000000Y-90500000D02*
X220000000Y-95770000D01*
X220000000Y-95770000D02*
X221230000Y-97000000D01*
X228500000Y-109500000D02*
X216000000Y-109500000D01*
X216000000Y-109500000D02*
X216000000Y-108810000D01*
X223000000Y-92500000D02*
X225500000Y-92500000D01*
X221230000Y-97000000D02*
X221230000Y-94270000D01*
X225500000Y-92500000D02*
X230000000Y-97000000D01*
X221230000Y-94270000D02*
X223000000Y-92500000D01*
X230000000Y-108000000D02*
X228500000Y-109500000D01*
X230000000Y-97000000D02*
X230000000Y-108000000D01*
X216000000Y-108810000D02*
X214690000Y-107500000D01*
X226000000Y-59000000D02*
X226000000Y-70000000D01*
X221000000Y-75000000D02*
X217500000Y-75000000D01*
X226000000Y-70000000D02*
X221000000Y-75000000D01*
X217460000Y-64000000D02*
X217460000Y-58540000D01*
X225000000Y-58000000D02*
X226000000Y-59000000D01*
X218000000Y-58000000D02*
X225000000Y-58000000D01*
X217460000Y-58540000D02*
X218000000Y-58000000D01*
X217500000Y-75000000D02*
X217460000Y-75040000D01*
X217460000Y-75040000D02*
X217460000Y-79000000D01*
X193960000Y-131500000D02*
X189000000Y-131500000D01*
X189000000Y-131500000D02*
X180960000Y-123460000D01*
X180960000Y-123460000D02*
X180960000Y-116000000D01*
X213000000Y-135500000D02*
X196000000Y-135500000D01*
X219000000Y-129500000D02*
X213000000Y-135500000D01*
X196000000Y-135500000D02*
X193960000Y-133460000D01*
X219230000Y-129500000D02*
X219000000Y-129500000D01*
X193960000Y-133460000D02*
X193960000Y-131500000D01*
X228730000Y-115500000D02*
X228730000Y-119270000D01*
X228730000Y-119270000D02*
X219230000Y-128770000D01*
X219230000Y-128770000D02*
X219230000Y-129500000D01*
X220500000Y-110500000D02*
X225500000Y-115500000D01*
X214690000Y-107500000D02*
X214690000Y-109690000D01*
X215500000Y-110500000D02*
X220500000Y-110500000D01*
X214690000Y-109690000D02*
X215500000Y-110500000D01*
X225500000Y-115500000D02*
X228730000Y-115500000D01*
X217460000Y-64000000D02*
X217460000Y-64040000D01*
X191230000Y-79500000D02*
X189500000Y-79500000D01*
X184500000Y-67000000D02*
X188000000Y-63500000D01*
X189500000Y-79500000D02*
X184500000Y-74500000D01*
X184500000Y-74500000D02*
X184500000Y-67000000D01*
X188000000Y-63500000D02*
X192230000Y-63500000D01*
%TD*%
M02*
