M48
; DRILL file KiCad 10.0.1 date 2026-04-18T13:55:43
; FORMAT={-:-/ absolute / metric / decimal}
; #@! TF.CreationDate,2026-04-18T13:55:43-07:00
; #@! TF.GenerationSoftware,Kicad,Pcbnew,10.0.1
; #@! TF.FileFunction,Plated,1,2,PTH
FMAT,2
METRIC
; #@! TA.AperFunction,Plated,PTH,ComponentDrill
T1C0.787
; #@! TA.AperFunction,Plated,PTH,ComponentDrill
T2C0.800
; #@! TA.AperFunction,Plated,PTH,ComponentDrill
T3C0.850
; #@! TA.AperFunction,Plated,PTH,ComponentDrill
T4C0.900
; #@! TA.AperFunction,Plated,PTH,ComponentDrill
T5C1.000
%
G90
G05
T1
X197.11Y-89.69
X197.11Y-97.31
X199.65Y-89.69
X199.65Y-97.31
X202.19Y-89.69
X202.19Y-97.31
X204.73Y-89.69
X204.73Y-97.31
X207.27Y-89.69
X207.27Y-97.31
X209.81Y-89.69
X209.81Y-97.31
X212.35Y-89.69
X212.35Y-97.31
X214.89Y-89.69
X214.89Y-97.31
T2
X192.839Y-105.5
X195.045Y-116.5
X195.339Y-105.5
X197.045Y-116.5
X202.19Y-100.695
X202.19Y-108.315
X204.73Y-100.695
X204.73Y-108.315
X207.27Y-100.695
X207.27Y-108.315
X209.81Y-100.695
X209.81Y-108.315
X214.69Y-103.45
X214.69Y-107.5
X222.31Y-103.45
X222.31Y-107.5
T3
X203.42Y-117.0
X205.96Y-117.0
X208.5Y-117.0
T4
X180.96Y-116.0
X183.5Y-116.0
X186.96Y-98.0
X189.5Y-98.0
X191.23Y-79.5
X192.23Y-63.5
X193.77Y-79.5
X193.96Y-131.5
X194.77Y-63.5
X196.5Y-131.5
X217.46Y-64.0
X217.46Y-79.0
X219.23Y-129.5
X220.0Y-64.0
X220.0Y-79.0
X221.23Y-97.0
X221.77Y-129.5
X223.77Y-97.0
X228.73Y-115.5
X231.27Y-115.5
T5
X215.0Y-114.0
X215.0Y-116.54
M30
